<svg xmlns="http://www.w3.org/2000/svg" width="137.164" height="107.768" viewBox="0 0 137.164 107.768">
  <g id="banner_02" data-name="banner 02" transform="translate(-237.9 -19.232)">
    <g id="Grupo_13536" data-name="Grupo 13536" transform="translate(237.9 19.232)">
      <g id="Grupo_13512" data-name="Grupo 13512" transform="translate(3.824)">
        <g id="Grupo_13511" data-name="Grupo 13511">
          <path id="Trazado_75541" data-name="Trazado 75541" d="M153.272,137.263c-14.144,0-29.266-6.437-41.943-17.95-9.631-8.747-16.706-18.553-20.46-28.359-4.5-11.746-4.274-23.263.665-34.228a45.672,45.672,0,0,1,11.442-15.283A48.528,48.528,0,0,1,119.628,31.8c10.467-3.473,21.079-2.692,29.882,2.2.662.368,1.329.766,1.984,1.185.427.273.856.562,1.274.859q.38.27.752.548a32.241,32.241,0,0,1,4.653,4.037c.257-.163.5-.316.736-.461a44.494,44.494,0,0,1,23.4-7.063l.333,0A35.144,35.144,0,0,1,210.9,48.527c4.213,6.05,6.561,13.776,6.792,22.343a58.6,58.6,0,0,1-4.286,23.174l-.318-.13.318.13c-4.378,10.737-12.522,21.077-22.934,29.117-10.749,8.3-22.917,13.275-34.261,14.008Q154.752,137.264,153.272,137.263ZM132.475,30.35a40.114,40.114,0,0,0-12.63,2.1,47.838,47.838,0,0,0-16.414,9.506,44.98,44.98,0,0,0-11.27,15.05c-4.86,10.793-5.079,22.131-.649,33.7,3.716,9.706,10.729,19.421,20.28,28.1,12.55,11.4,27.507,17.771,41.479,17.772q1.459,0,2.9-.093c11.209-.725,23.243-5.649,33.885-13.866,10.317-7.966,18.385-18.206,22.718-28.832a57.9,57.9,0,0,0,4.235-22.9c-.227-8.433-2.533-16.03-6.669-21.969a34.456,34.456,0,0,0-27.7-15.13,43.641,43.641,0,0,0-23.366,6.958c-.2.126-.418.26-.641.4,1.7,2.022,2.934,4.46,2.359,7.074a4.974,4.974,0,0,1-3.912,3.922,4.3,4.3,0,0,1-4.734-4c-.077-3.217,2.833-5.559,5.244-7.146a32.111,32.111,0,0,0-4.479-3.865q-.367-.274-.739-.539c-.409-.29-.829-.572-1.247-.84-.643-.411-1.3-.8-1.947-1.163A34.2,34.2,0,0,0,132.475,30.35Zm25.574,11.173c-2.3,1.5-5.087,3.709-5.017,6.61a3.616,3.616,0,0,0,3.948,3.332,4.277,4.277,0,0,0,3.34-3.39C160.844,45.694,159.667,43.427,158.049,41.523Z" transform="translate(-87.655 -29.663)" fill="#fff"/>
        </g>
      </g>
      <g id="Grupo_13514" data-name="Grupo 13514" transform="translate(8.252 78.078)">
        <g id="Grupo_13513" data-name="Grupo 13513">
          <path id="Trazado_75542" data-name="Trazado 75542" d="M116.682,374.553a13.664,13.664,0,0,0-3.843-3.414c-2.368-1.356-5.537-.465-5.828,2.513-.456,4.664,5.5,8.466,9.086,10.176a4.208,4.208,0,0,0,2.048.543c1.565-.106,1.992-1.869,1.746-3.161A16.384,16.384,0,0,0,116.682,374.553Z" transform="translate(-106.986 -370.521)" fill="#cd82f1"/>
        </g>
      </g>
      <g id="Grupo_13516" data-name="Grupo 13516" transform="translate(5.914 71.023)">
        <g id="Grupo_13515" data-name="Grupo 13515">
          <path id="Trazado_75543" data-name="Trazado 75543" d="M99.736,344.232a2.234,2.234,0,0,0,1.2-2.9c-.893-1.934-3.161-2.333-4.01-.072A2.246,2.246,0,0,0,99.736,344.232Z" transform="translate(-96.777 -339.722)" fill="#e6f5ff"/>
        </g>
      </g>
      <g id="Grupo_13518" data-name="Grupo 13518" transform="translate(120.382 80.8)">
        <g id="Grupo_13517" data-name="Grupo 13517">
          <path id="Trazado_75544" data-name="Trazado 75544" d="M604.4,385.1c-.847-2.768-5.326-3.71-7.069-1.356a3.966,3.966,0,0,0,4.628,6.111A4.125,4.125,0,0,0,604.4,385.1Z" transform="translate(-596.502 -382.402)" fill="#7bb7f0"/>
        </g>
      </g>
      <g id="Grupo_13520" data-name="Grupo 13520" transform="translate(116.307 19.312)">
        <g id="Grupo_13519" data-name="Grupo 13519">
          <path id="Trazado_75545" data-name="Trazado 75545" d="M589.387,118.2c-1.593-3.51-5.52-5.826-8.875-2.9-3.735,3.258-1,9.356,2.326,11.815,1.441,1.066,3.451,1.707,5.012.828a4.894,4.894,0,0,0,2.072-3.227A10.094,10.094,0,0,0,589.387,118.2Z" transform="translate(-578.715 -113.972)" fill="#e6f5ff"/>
        </g>
      </g>
      <g id="Grupo_13522" data-name="Grupo 13522" transform="translate(126.772 11.334)">
        <g id="Grupo_13521" data-name="Grupo 13521">
          <path id="Trazado_75546" data-name="Trazado 75546" d="M629.84,83.158c.467-1.6-.053-3.613-2.1-3.962a2.846,2.846,0,0,0-2.3,5.03C627.627,86.185,629.328,84.917,629.84,83.158Z" transform="translate(-624.4 -79.144)" fill="#e6f5ff"/>
        </g>
      </g>
      <g id="Grupo_13524" data-name="Grupo 13524" transform="translate(26.276 3.38)">
        <g id="Grupo_13523" data-name="Grupo 13523">
          <path id="Trazado_75547" data-name="Trazado 75547" d="M207.742,51.116a3.231,3.231,0,0,0,1.538-3.623c-1.073-4.319-9.408-3.126-12.462-2.148-3.464,1.109-9.905,3.952-11.036,7.846a3.038,3.038,0,0,0,.932,3.092c1.931,1.634,5.109.5,7.188-.291a73.466,73.466,0,0,1,8.4-2.838A17,17,0,0,0,207.742,51.116Z" transform="translate(-185.671 -44.416)" fill="#cd82f1"/>
        </g>
      </g>
      <g id="Grupo_13526" data-name="Grupo 13526" transform="translate(18.592 15.477)">
        <g id="Grupo_13525" data-name="Grupo 13525">
          <path id="Trazado_75548" data-name="Trazado 75548" d="M153.141,102.091c-1.905-1.182-.878-4.172,1.047-4.719C158.9,96.034,157.273,104.654,153.141,102.091Z" transform="translate(-152.127 -97.23)" fill="#7bb7f0"/>
        </g>
      </g>
      <g id="Grupo_13529" data-name="Grupo 13529" transform="translate(127.496 49.409)">
        <g id="Grupo_13528" data-name="Grupo 13528">
          <g id="Grupo_13527" data-name="Grupo 13527">
            <path id="Trazado_75549" data-name="Trazado 75549" d="M628.215,270.065a50.452,50.452,0,0,0,9.01-24.375c.042-.44-.646-.437-.687,0a49.764,49.764,0,0,1-8.917,24.028c-.256.362.34.706.594.347Z" transform="translate(-627.559 -245.361)" fill="#fff"/>
          </g>
        </g>
      </g>
      <g id="Grupo_13532" data-name="Grupo 13532" transform="translate(83.569 0.943)">
        <g id="Grupo_13531" data-name="Grupo 13531">
          <g id="Grupo_13530" data-name="Grupo 13530">
            <path id="Trazado_75550" data-name="Trazado 75550" d="M436.32,37.223a33.841,33.841,0,0,1,15.254-2.708c.442.024.441-.663,0-.687a34.583,34.583,0,0,0-15.6,2.8c-.405.175-.056.767.347.593Z" transform="translate(-435.793 -33.777)" fill="#fff"/>
          </g>
        </g>
      </g>
      <g id="Grupo_13535" data-name="Grupo 13535" transform="translate(0 36.284)">
        <g id="Grupo_13534" data-name="Grupo 13534">
          <g id="Grupo_13533" data-name="Grupo 13533">
            <path id="Trazado_75551" data-name="Trazado 75551" d="M75.543,215.417A48.376,48.376,0,0,1,72.286,188.5c.072-.432-.59-.619-.663-.183a49.213,49.213,0,0,0,3.327,27.451c.174.405.766.055.593-.347Z" transform="translate(-70.961 -188.065)" fill="#fff"/>
          </g>
        </g>
      </g>
    </g>
    <g id="Grupo_13685" data-name="Grupo 13685" transform="translate(265.87 41.02)">
      <g id="Grupo_13537" data-name="Grupo 13537" transform="translate(17.227 63.349)">
        <path id="Trazado_75552" data-name="Trazado 75552" d="M293.865,401.332c.952,3.671,1.408,22.6,1.408,22.6H268.916s-2.047-16.834,1.155-21.809Z" transform="translate(-268.272 -401.332)" fill="#231e31"/>
      </g>
      <g id="Grupo_13568" data-name="Grupo 13568" transform="translate(9.283)">
        <g id="Grupo_13538" data-name="Grupo 13538" transform="translate(0 30.455)">
          <path id="Trazado_75553" data-name="Trazado 75553" d="M239.194,262.773s-.926,1.3-1.536,1.305-3.862-4.609-4.047-5.012,1.266-1.337,1.266-1.337Z" transform="translate(-233.594 -257.73)" fill="#6b37c8"/>
        </g>
        <g id="Grupo_13539" data-name="Grupo 13539" transform="translate(1.239 21.287)">
          <path id="Trazado_75554" data-name="Trazado 75554" d="M291.82,220.848c-15.509-4.331-34.468-3.683-42.474-1.075s-10.734,5.294-10.3,7.1l2.511,4.559s28.407-3.709,39.654-.587Z" transform="translate(-239.002 -217.706)" fill="#9057ec"/>
        </g>
        <g id="Grupo_13540" data-name="Grupo 13540" transform="translate(30.221 27.805)">
          <path id="Trazado_75555" data-name="Trazado 75555" d="M366.464,246.161c4.27,1.931,11.844,7.579,11.844,7.579l-2.742,10.089-7.206-3.534-2.832-13.08Z" transform="translate(-365.528 -246.161)" fill="#c75e21"/>
        </g>
        <g id="Grupo_13541" data-name="Grupo 13541" transform="translate(9.896 61.177)">
          <path id="Trazado_75556" data-name="Trazado 75556" d="M276.931,392.3l-.134,3.128,25.07-.792-.218-2.788Z" transform="translate(-276.797 -391.852)" fill="#231e31"/>
        </g>
        <g id="Grupo_13542" data-name="Grupo 13542" transform="translate(7.67 25.145)">
          <path id="Trazado_75557" data-name="Trazado 75557" d="M294.081,267.852l-1.619-16.509-1.9-14.133c-3.786-1.71-6.214-2.795-13.661-2.646,0,0-5.8,1.083-9.826,4.245a83.724,83.724,0,0,1,.614,12.038c-.208,8.8-1.081,19.37,1.747,20.188l24.717-.452S294.083,269.355,294.081,267.852Z" transform="translate(-267.08 -234.551)" fill="#c75e21"/>
        </g>
        <g id="Grupo_13543" data-name="Grupo 13543" transform="translate(7.994 43.106)">
          <path id="Trazado_75558" data-name="Trazado 75558" d="M268.649,315.6c-.095,2.787-.187,5.566-.149,8l1.846-10.642Z" transform="translate(-268.491 -312.961)" fill="#231e31"/>
        </g>
        <g id="Grupo_13544" data-name="Grupo 13544" transform="translate(28.299 5.64)">
          <path id="Trazado_75559" data-name="Trazado 75559" d="M357.135,150.282s2.143-1.554,3.669-.537-1.194,9.11-1.194,9.11h-.768Z" transform="translate(-357.135 -149.4)" fill="#181843"/>
        </g>
        <g id="Grupo_13546" data-name="Grupo 13546" transform="translate(28.584 14.666)">
          <g id="Grupo_13545" data-name="Grupo 13545">
            <path id="Trazado_75560" data-name="Trazado 75560" d="M358.968,189.269s3.619-1.727,3.787,1.466c.184,3.512-4.376,1.859-4.376,1.859Z" transform="translate(-358.379 -188.802)" fill="#f39e6e"/>
          </g>
        </g>
        <g id="Grupo_13547" data-name="Grupo 13547" transform="translate(15.208 24.282)">
          <path id="Trazado_75561" data-name="Trazado 75561" d="M302.214,230.887c-2.382.134-2.2,1.989-2.225,2.957-.044,1.662,1.137,5.688,2.666,5.353s3.333-2.591,3.333-2.591,2.391,2.838,3.763,2.155.7-6.643-1.866-7.466A15.047,15.047,0,0,0,302.214,230.887Z" transform="translate(-299.988 -230.783)" fill="#fff"/>
        </g>
        <g id="Grupo_13549" data-name="Grupo 13549" transform="translate(12.836 4.259)">
          <g id="Grupo_13548" data-name="Grupo 13548">
            <path id="Trazado_75562" data-name="Trazado 75562" d="M293.713,165.337l-.405-9.462s-3.791.754-3.674-2.244c.1-2.671,3-2.483,4.211-1.057,0,0-1.232-9.544,6.835-9.2s6.664,11.272,6.337,13.917c-.577,4.659-4.218,6.439-6.662,6.343l-.2,2.877s-.147,2.522-2.505,2.3A4.736,4.736,0,0,1,293.713,165.337Z" transform="translate(-289.631 -143.37)" fill="#f39e6e"/>
          </g>
        </g>
        <g id="Grupo_13550" data-name="Grupo 13550" transform="translate(14.243 7.158)">
          <path id="Trazado_75563" data-name="Trazado 75563" d="M298.234,161.992s1.2.739,1.1,2.956l.682.168.282-4.351s1.838-.772,2.264-3.7l-6.784-1.035a22.16,22.16,0,0,0,.945,5.305A3.708,3.708,0,0,1,298.234,161.992Z" transform="translate(-295.775 -156.026)" fill="#181843"/>
        </g>
        <g id="Grupo_13552" data-name="Grupo 13552" transform="translate(21.841 13.141)">
          <g id="Grupo_13551" data-name="Grupo 13551">
            <path id="Trazado_75564" data-name="Trazado 75564" d="M328.977,182.772a.864.864,0,1,0,1.066-.6A.864.864,0,0,0,328.977,182.772Z" transform="translate(-328.944 -182.144)" fill="#181843"/>
          </g>
        </g>
        <g id="Grupo_13554" data-name="Grupo 13554" transform="translate(26.116 13.596)">
          <g id="Grupo_13553" data-name="Grupo 13553">
            <path id="Trazado_75565" data-name="Trazado 75565" d="M347.639,184.763a.864.864,0,1,0,1.066-.6A.864.864,0,0,0,347.639,184.763Z" transform="translate(-347.607 -184.134)" fill="#181843"/>
          </g>
        </g>
        <g id="Grupo_13555" data-name="Grupo 13555" transform="translate(25.013 14.507)">
          <path id="Trazado_75566" data-name="Trazado 75566" d="M343.36,190.772a1.1,1.1,0,0,1-.445-.109.224.224,0,0,1,.2-.4c.1.049.277.089.325.041.01-.011.246-.273-.531-1.873a.224.224,0,0,1,.4-.2c.641,1.319.778,2.055.443,2.387A.541.541,0,0,1,343.36,190.772Z" transform="translate(-342.79 -188.108)" fill="#181843"/>
        </g>
        <g id="Grupo_13556" data-name="Grupo 13556" transform="translate(23.062 17.146)">
          <path id="Trazado_75567" data-name="Trazado 75567" d="M336.293,201.2a.227.227,0,0,1-.043,0,3.217,3.217,0,0,1-1.928-1.2.224.224,0,1,1,.357-.271,2.764,2.764,0,0,0,1.656,1.031.224.224,0,0,1-.042.444Z" transform="translate(-334.276 -199.631)" fill="#181843"/>
        </g>
        <g id="Grupo_13557" data-name="Grupo 13557" transform="translate(14.019 13.476)">
          <path id="Trazado_75568" data-name="Trazado 75568" d="M296.91,185.6H296.9a.224.224,0,0,1-.213-.235,1.246,1.246,0,0,0-1.6-1.257.224.224,0,0,1-.128-.429,1.694,1.694,0,0,1,2.176,1.708A.224.224,0,0,1,296.91,185.6Z" transform="translate(-294.797 -183.609)" fill="#181843"/>
        </g>
        <g id="Grupo_13558" data-name="Grupo 13558" transform="translate(14.865 13.994)">
          <path id="Trazado_75569" data-name="Trazado 75569" d="M298.714,186.918a.224.224,0,0,1-.158-.383l.6-.6a.224.224,0,1,1,.317.317l-.6.6A.225.225,0,0,1,298.714,186.918Z" transform="translate(-298.49 -185.869)" fill="#181843"/>
        </g>
        <g id="Grupo_13559" data-name="Grupo 13559" transform="translate(21.418 11.05)">
          <path id="Trazado_75570" data-name="Trazado 75570" d="M330.021,174.051a.223.223,0,0,1-.133-.044,2.147,2.147,0,0,0-2.444-.258.224.224,0,0,1-.246-.374,2.581,2.581,0,0,1,2.957.272.224.224,0,0,1-.134.4Z" transform="translate(-327.097 -173.018)" fill="#181843"/>
        </g>
        <g id="Grupo_13560" data-name="Grupo 13560" transform="translate(26.028 11.388)">
          <path id="Trazado_75571" data-name="Trazado 75571" d="M349.988,175.592a.223.223,0,0,1-.173-.081,1.707,1.707,0,0,0-2.236-.278.224.224,0,1,1-.265-.361,2.173,2.173,0,0,1,2.847.353.224.224,0,0,1-.173.367Z" transform="translate(-347.222 -174.494)" fill="#181843"/>
        </g>
        <g id="Grupo_13561" data-name="Grupo 13561" transform="translate(19.169 22.313)">
          <path id="Trazado_75572" data-name="Trazado 75572" d="M321.668,224.4a8.57,8.57,0,0,1-4.39-2.215,7.782,7.782,0,0,0,4.291,3.642Z" transform="translate(-317.278 -222.188)" fill="#181843"/>
        </g>
        <g id="Grupo_13562" data-name="Grupo 13562" transform="translate(19.887 14.921)">
          <path id="Trazado_75573" data-name="Trazado 75573" d="M322.787,191.684a1.244,1.244,0,1,1-.606-1.651A1.244,1.244,0,0,1,322.787,191.684Z" transform="translate(-320.414 -189.917)" fill="#e87555"/>
        </g>
        <g id="Grupo_13563" data-name="Grupo 13563" transform="translate(27.207 16.279)">
          <path id="Trazado_75574" data-name="Trazado 75574" d="M354.744,197.611a1.244,1.244,0,1,1-.606-1.651A1.244,1.244,0,0,1,354.744,197.611Z" transform="translate(-352.371 -195.844)" fill="#e87555"/>
        </g>
        <g id="Grupo_13567" data-name="Grupo 13567" transform="translate(11.149)">
          <g id="Grupo_13564" data-name="Grupo 13564">
            <path id="Trazado_75575" data-name="Trazado 75575" d="M282.265,132.071s13.129,2.793,16.52,1.088,3.125-5.769.152-7.57-6.855-.349-10.2,1.868C285.175,129.818,282.265,132.071,282.265,132.071Z" transform="translate(-282.265 -124.777)" fill="#181843"/>
          </g>
          <g id="Grupo_13565" data-name="Grupo 13565" transform="translate(18.998 15.234)">
            <path id="Trazado_75576" data-name="Trazado 75576" d="M365.426,193.546a.224.224,0,0,1-.21-.3,4.306,4.306,0,0,0,.257-1.723.224.224,0,1,1,.447-.026,4.761,4.761,0,0,1-.284,1.9A.224.224,0,0,1,365.426,193.546Z" transform="translate(-365.202 -191.284)" fill="#181843"/>
          </g>
          <g id="Grupo_13566" data-name="Grupo 13566" transform="translate(19.266 15.767)">
            <path id="Trazado_75577" data-name="Trazado 75577" d="M366.6,194.372a.224.224,0,0,1-.158-.383,1.35,1.35,0,0,1,1.248-.344.224.224,0,1,1-.107.435.892.892,0,0,0-.825.228A.224.224,0,0,1,366.6,194.372Z" transform="translate(-366.372 -193.608)" fill="#181843"/>
          </g>
        </g>
      </g>
      <g id="Grupo_13597" data-name="Grupo 13597" transform="translate(43.808 2.046)">
        <g id="Grupo_13569" data-name="Grupo 13569" transform="translate(7.923 53.091)">
          <path id="Trazado_75578" data-name="Trazado 75578" d="M438.189,366.232l-.018.318a29.267,29.267,0,0,1-19.264.365v-1.428h13.8Z" transform="translate(-418.907 -365.486)" fill="#b2684b"/>
        </g>
        <g id="Grupo_13570" data-name="Grupo 13570" transform="translate(4.349 23.102)">
          <path id="Trazado_75579" data-name="Trazado 75579" d="M405.946,266.189c-5.614-.882-.537-15.464-.537-15.464l.1-13.343c2.1-1.482,5.938-2.955,13.385-2.806,0,0,7.141,1.786,9.826,4.245,0,0,3.329,23.1-1.036,28.851Z" transform="translate(-403.304 -234.565)" fill="#9057ec"/>
        </g>
        <g id="Grupo_13571" data-name="Grupo 13571" transform="translate(12.375 25.788)">
          <path id="Trazado_75580" data-name="Trazado 75580" d="M442.5,250.964a3.958,3.958,0,0,1-.957-.116,4.334,4.334,0,0,1-3.19-4.346.224.224,0,0,1,.447.027,3.774,3.774,0,0,0,7.2,1.8.224.224,0,0,1,.407.187A4.356,4.356,0,0,1,442.5,250.964Z" transform="translate(-438.341 -246.291)" fill="#6b37c8"/>
        </g>
        <g id="Grupo_13572" data-name="Grupo 13572" transform="translate(3.878 25.221)">
          <path id="Trazado_75581" data-name="Trazado 75581" d="M404.227,250.071h-.011a.224.224,0,0,1-.213-.235,6.747,6.747,0,0,0-2.665-5.618.224.224,0,1,1,.266-.361,7.108,7.108,0,0,1,2.846,6A.224.224,0,0,1,404.227,250.071Z" transform="translate(-401.246 -243.814)" fill="#6b37c8"/>
        </g>
        <g id="Grupo_13573" data-name="Grupo 13573" transform="translate(6.328 54.726)">
          <path id="Trazado_75582" data-name="Trazado 75582" d="M434.349,374.1a7.135,7.135,0,0,1,0,2.609l-22.406-1.328.663-2.765Z" transform="translate(-411.943 -372.622)" fill="#6b37c8"/>
        </g>
        <g id="Grupo_13595" data-name="Grupo 13595">
          <g id="Grupo_13574" data-name="Grupo 13574" transform="translate(13.714 3.305)">
            <path id="Trazado_75583" data-name="Trazado 75583" d="M446.237,148.137s7.745,1.853,9.245,4.579-7.467,9.624-7.467,9.624l-3.827-8.909Z" transform="translate(-444.188 -148.137)" fill="#181843"/>
          </g>
          <g id="Grupo_13575" data-name="Grupo 13575">
            <path id="Trazado_75584" data-name="Trazado 75584" d="M387.23,151.906c-3.372-4.162-3.766-10.369-1.448-13.719s8.974-6.4,13.881-2.972,3.349,10.143,3.349,10.143Z" transform="translate(-384.317 -133.71)" fill="#181843"/>
          </g>
          <g id="Grupo_13577" data-name="Grupo 13577" transform="translate(1.736 4.476)">
            <g id="Grupo_13576" data-name="Grupo 13576">
              <path id="Trazado_75585" data-name="Trazado 75585" d="M410.193,171.891l-3.041-8.969s3.807-.666,2.616-3.42c-1.062-2.453-3.695-1.231-4.309.536,0,0-2.3-9.344-9.7-6.1s-2.141,12.919-.88,15.267c2.221,4.135,6.259,4.48,8.5,3.507l1.227,2.61s1.049,2.3,3.166,1.238A4.737,4.737,0,0,0,410.193,171.891Z" transform="translate(-391.896 -153.251)" fill="#f39e6e"/>
            </g>
          </g>
          <g id="Grupo_13579" data-name="Grupo 13579" transform="translate(0.885 17.621)">
            <g id="Grupo_13578" data-name="Grupo 13578">
              <path id="Trazado_75586" data-name="Trazado 75586" d="M391.342,210.643s-4-.3-3,2.736c1.1,3.341,4.752.153,4.752.153Z" transform="translate(-388.181 -210.634)" fill="#f39e6e"/>
            </g>
          </g>
          <g id="Grupo_13581" data-name="Grupo 13581" transform="translate(9.116 12.548)">
            <g id="Grupo_13580" data-name="Grupo 13580">
              <path id="Trazado_75587" data-name="Trazado 75587" d="M425.666,188.835a.864.864,0,1,1-1.21-.171A.864.864,0,0,1,425.666,188.835Z" transform="translate(-424.112 -188.491)" fill="#181843"/>
            </g>
          </g>
          <g id="Grupo_13583" data-name="Grupo 13583" transform="translate(5.393 14.413)">
            <g id="Grupo_13582" data-name="Grupo 13582">
              <path id="Trazado_75588" data-name="Trazado 75588" d="M409.415,196.977a.864.864,0,1,1-1.21-.17A.864.864,0,0,1,409.415,196.977Z" transform="translate(-407.861 -196.633)" fill="#181843"/>
            </g>
          </g>
          <g id="Grupo_13584" data-name="Grupo 13584" transform="translate(7.77 15.213)">
            <path id="Trazado_75589" data-name="Trazado 75589" d="M418.932,202.758a.5.5,0,0,1-.2-.042c-.432-.189-.57-.924-.449-2.386a.224.224,0,1,1,.446.037c-.147,1.772.168,1.932.181,1.938.063.027.213-.074.289-.156a.224.224,0,0,1,.33.3A.926.926,0,0,1,418.932,202.758Z" transform="translate(-418.239 -200.125)" fill="#181843"/>
          </g>
          <g id="Grupo_13585" data-name="Grupo 13585" transform="translate(9.404 16.935)">
            <path id="Trazado_75590" data-name="Trazado 75590" d="M425.6,209.78a.224.224,0,0,1-.12-.414,2.764,2.764,0,0,0,1.172-1.56.224.224,0,0,1,.431.123,3.218,3.218,0,0,1-1.364,1.816A.224.224,0,0,1,425.6,209.78Z" transform="translate(-425.372 -207.644)" fill="#181843"/>
          </g>
          <g id="Grupo_13586" data-name="Grupo 13586" transform="translate(3.449 18.09)">
            <path id="Trazado_75591" data-name="Trazado 75591" d="M400.683,215.084a.224.224,0,0,1-.184-.1A11.482,11.482,0,0,1,399.392,213a.224.224,0,0,1,.412-.177,11.014,11.014,0,0,0,1.063,1.914.224.224,0,0,1-.057.312A.222.222,0,0,1,400.683,215.084Z" transform="translate(-399.374 -212.683)" fill="#181843"/>
          </g>
          <g id="Grupo_13587" data-name="Grupo 13587" transform="translate(2.689 19.031)">
            <path id="Trazado_75592" data-name="Trazado 75592" d="M396.282,217.645a.224.224,0,0,1-.078-.434l1.085-.4a.224.224,0,1,1,.156.42l-1.084.4A.223.223,0,0,1,396.282,217.645Z" transform="translate(-396.057 -216.793)" fill="#181843"/>
          </g>
          <g id="Grupo_13588" data-name="Grupo 13588" transform="translate(16.45 10.301)">
            <path id="Trazado_75593" data-name="Trazado 75593" d="M456.481,181.194a.224.224,0,0,1-.2-.133,1.695,1.695,0,0,1,1.412-2.379.224.224,0,1,1,.036.447,1.246,1.246,0,0,0-1.038,1.75.224.224,0,0,1-.2.315Z" transform="translate(-456.133 -178.681)" fill="#181843"/>
          </g>
          <g id="Grupo_13589" data-name="Grupo 13589" transform="translate(16.616 11.251)">
            <path id="Trazado_75594" data-name="Trazado 75594" d="M457.856,183.621a.224.224,0,0,1-.09-.019l-.778-.343a.224.224,0,1,1,.181-.41l.778.342a.224.224,0,0,1-.091.429Z" transform="translate(-456.854 -182.829)" fill="#181843"/>
          </g>
          <g id="Grupo_13590" data-name="Grupo 13590" transform="translate(7.426 9.626)">
            <path id="Trazado_75595" data-name="Trazado 75595" d="M416.961,177.41a.224.224,0,0,1-.188-.346,2.967,2.967,0,0,1,2.623-1.324.224.224,0,1,1-.027.447,2.549,2.549,0,0,0-2.221,1.122A.223.223,0,0,1,416.961,177.41Z" transform="translate(-416.737 -175.734)" fill="#181843"/>
          </g>
          <g id="Grupo_13591" data-name="Grupo 13591" transform="translate(3.224 12.191)">
            <path id="Trazado_75596" data-name="Trazado 75596" d="M398.616,188.65a.224.224,0,0,1-.213-.295A2.172,2.172,0,0,1,400.93,187a.224.224,0,0,1-.116.433,1.707,1.707,0,0,0-1.985,1.067A.224.224,0,0,1,398.616,188.65Z" transform="translate(-398.392 -186.933)" fill="#181843"/>
          </g>
          <g id="Grupo_13592" data-name="Grupo 13592" transform="translate(13.228 19.889)">
            <path id="Trazado_75597" data-name="Trazado 75597" d="M442.067,224.58c2.075-1.017,3.306-4.044,3.306-4.044a6.631,6.631,0,0,1-2.7,5.338Z" transform="translate(-442.067 -220.536)" fill="#181843"/>
          </g>
          <g id="Grupo_13593" data-name="Grupo 13593" transform="translate(11.227 14.013)">
            <path id="Trazado_75598" data-name="Trazado 75598" d="M433.709,197.026a1.244,1.244,0,1,0-.032-1.759A1.244,1.244,0,0,0,433.709,197.026Z" transform="translate(-433.329 -194.887)" fill="#e87555"/>
          </g>
          <g id="Grupo_13594" data-name="Grupo 13594" transform="translate(4.892 17.924)">
            <path id="Trazado_75599" data-name="Trazado 75599" d="M406.052,214.1a1.244,1.244,0,1,0-.032-1.758A1.243,1.243,0,0,0,406.052,214.1Z" transform="translate(-405.672 -211.961)" fill="#e87555"/>
          </g>
        </g>
        <g id="Grupo_13596" data-name="Grupo 13596" transform="translate(2.397 2.426)">
          <path id="Trazado_75600" data-name="Trazado 75600" d="M394.781,149.033c2.82,3,8.5,4.856,12.9,4.1l-1.2-8.837-11.592,3.635Z" transform="translate(-394.781 -144.3)" fill="#181843"/>
        </g>
      </g>
      <g id="Grupo_13636" data-name="Grupo 13636" transform="translate(37.681 31.619)">
        <g id="Grupo_13601" data-name="Grupo 13601" transform="translate(0 10.739)">
          <g id="Grupo_13598" data-name="Grupo 13598" transform="translate(7.402)">
            <path id="Trazado_75601" data-name="Trazado 75601" d="M392.57,309.693s-4.932,6.843-1.444,9.45,6.693-1.363,6.693-1.363Z" transform="translate(-389.878 -309.693)" fill="#231e31"/>
          </g>
          <g id="Grupo_13599" data-name="Grupo 13599" transform="translate(3.836 7.167)">
            <path id="Trazado_75602" data-name="Trazado 75602" d="M375.29,347.216a3.755,3.755,0,0,0,4.62.526,3.8,3.8,0,0,0,.609-5.556A3.534,3.534,0,0,0,374.5,343.5,3.77,3.77,0,0,0,375.29,347.216Z" transform="translate(-374.312 -340.983)" fill="#231e31"/>
          </g>
          <g id="Grupo_13600" data-name="Grupo 13600" transform="translate(0 11.187)">
            <path id="Trazado_75603" data-name="Trazado 75603" d="M357.579,361.995c-.356-1.007,6.117-4.228,7.482-3.3s.671,7.713-.329,7.924-1.306-3.24-1.306-3.24-.577,1.663-2.078,1.56.357-3.122.357-3.122S358,363.173,357.579,361.995Z" transform="translate(-357.565 -358.529)" fill="#231e31"/>
          </g>
        </g>
        <g id="Grupo_13603" data-name="Grupo 13603" transform="translate(22.266 7.678)">
          <g id="Grupo_13602" data-name="Grupo 13602">
            <path id="Trazado_75604" data-name="Trazado 75604" d="M457.656,296.329s6.233,5.658,3.929,9.948c-2.061,3.837-6.816.443-6.816.443Z" transform="translate(-454.769 -296.329)" fill="#231e31"/>
          </g>
        </g>
        <g id="Grupo_13604" data-name="Grupo 13604" transform="translate(7.505)">
          <path id="Trazado_75605" data-name="Trazado 75605" d="M407.219,267.067c3.358,5.7,1.238,14.729-7.354,15.224-4.014.231-8.588-1.509-9.352-6.556-.737-4.866.728-9.645,4.826-11.98,2.861-1.63,6.657-.986,9.338.707A7.649,7.649,0,0,1,407.219,267.067Z" transform="translate(-390.331 -262.812)" fill="#231e31"/>
        </g>
        <g id="Grupo_13610" data-name="Grupo 13610" transform="translate(3.713 23.158)">
          <g id="Grupo_13605" data-name="Grupo 13605" transform="translate(0 20.209)">
            <path id="Trazado_75606" data-name="Trazado 75606" d="M374.657,452.138l-.885,10.964h3.507l1.017-10.3Z" transform="translate(-373.773 -452.138)" fill="#cd6338"/>
          </g>
          <g id="Grupo_13606" data-name="Grupo 13606" transform="translate(0)">
            <path id="Trazado_75607" data-name="Trazado 75607" d="M393.335,363.912c1.217.755,8.3,4.368,9.311,7.869,1.037,3.582,1.716,13.278,1.716,13.278l-5.491.692.293,9.334h-22.2l.807-9.568-4-1.241s1.525-13.367,2.632-15.075,9.315-5.289,9.315-5.289Z" transform="translate(-373.773 -363.912)" fill="#ff718e"/>
          </g>
          <g id="Grupo_13607" data-name="Grupo 13607" transform="translate(24.287 21.306)">
            <path id="Trazado_75608" data-name="Trazado 75608" d="M484.66,456.927l-4.859.6.409,9.266h5.263Z" transform="translate(-479.801 -456.927)" fill="#f39e6e"/>
          </g>
          <g id="Grupo_13608" data-name="Grupo 13608" transform="translate(24.287 21.306)">
            <path id="Trazado_75609" data-name="Trazado 75609" d="M479.819,457.96l-.018-.432,4.859-.6.078.992Z" transform="translate(-479.801 -456.927)" fill="#231e31"/>
          </g>
          <g id="Grupo_13609" data-name="Grupo 13609" transform="translate(3.665 8.298)">
            <path id="Trazado_75610" data-name="Trazado 75610" d="M390,412.822l-.028,0a.224.224,0,0,1-.195-.25l1.521-12.236a.224.224,0,0,1,.445.055l-1.521,12.236A.224.224,0,0,1,390,412.822Z" transform="translate(-389.775 -400.138)" fill="#d94277"/>
          </g>
        </g>
        <g id="Grupo_13611" data-name="Grupo 13611" transform="translate(13.741 21.871)">
          <path id="Trazado_75611" data-name="Trazado 75611" d="M420.264,358.691a5.143,5.143,0,0,0-1.9,1.471c-.536.807-1.552,6.017.049,5.79.678-.1,3.455-2.55,3.455-2.55s3.089,3.1,3.863,2.99,2.781-6.973.3-7.863C424.314,357.913,420.264,358.691,420.264,358.691Z" transform="translate(-417.554 -358.292)" fill="#fff"/>
        </g>
        <g id="Grupo_13613" data-name="Grupo 13613" transform="translate(9.748 2.453)">
          <g id="Grupo_13612" data-name="Grupo 13612">
            <path id="Trazado_75612" data-name="Trazado 75612" d="M412.436,294.027l.6-8.754s3.493.789,3.457-1.99c-.032-2.477-2.719-2.372-3.875-1.08,0,0,1.369-8.81-6.111-8.68s-6.442,10.281-6.2,12.739a6.245,6.245,0,0,0,6.019,6.034l.117,2.67s.076,2.34,2.265,2.188A4.388,4.388,0,0,0,412.436,294.027Z" transform="translate(-400.121 -273.522)" fill="#f39e6e"/>
          </g>
        </g>
        <g id="Grupo_13615" data-name="Grupo 13615" transform="translate(16.107 10.315)">
          <g id="Grupo_13614" data-name="Grupo 13614">
            <path id="Trazado_75613" data-name="Trazado 75613" d="M429.461,308.445a.8.8,0,1,1-.974-.578A.8.8,0,0,1,429.461,308.445Z" transform="translate(-427.884 -307.843)" fill="#231e31"/>
          </g>
        </g>
        <g id="Grupo_13617" data-name="Grupo 13617" transform="translate(12.078 10.943)">
          <g id="Grupo_13616" data-name="Grupo 13616">
            <path id="Trazado_75614" data-name="Trazado 75614" d="M411.868,311.186a.8.8,0,1,1-.974-.578A.8.8,0,0,1,411.868,311.186Z" transform="translate(-410.292 -310.584)" fill="#231e31"/>
          </g>
        </g>
        <g id="Grupo_13619" data-name="Grupo 13619" transform="translate(13.712 11.888)">
          <g id="Grupo_13618" data-name="Grupo 13618">
            <path id="Trazado_75615" data-name="Trazado 75615" d="M418.681,317.33a.215.215,0,0,0-.01-.426c-.405-.043-.624-.136-.728-.312-.164-.275-.087-.823.224-1.586a.215.215,0,0,0-.118-.28.218.218,0,0,0-.28.118c-.379.931-.441,1.556-.194,1.969a1.282,1.282,0,0,0,1.052.519A.214.214,0,0,0,418.681,317.33Z" transform="translate(-417.427 -314.71)" fill="#290920"/>
          </g>
        </g>
        <g id="Grupo_13621" data-name="Grupo 13621" transform="translate(14.474 14.389)">
          <g id="Grupo_13620" data-name="Grupo 13620">
            <path id="Trazado_75616" data-name="Trazado 75616" d="M421,327.046h0a2.991,2.991,0,0,0,1.819-1.069.215.215,0,1,0-.335-.268,2.558,2.558,0,0,1-1.555.913.215.215,0,0,0,.068.424Z" transform="translate(-420.754 -325.627)" fill="#290920"/>
          </g>
        </g>
        <g id="Grupo_13623" data-name="Grupo 13623" transform="translate(22.838 11.196)">
          <g id="Grupo_13622" data-name="Grupo 13622">
            <path id="Trazado_75617" data-name="Trazado 75617" d="M457.518,313.508a.215.215,0,0,0,.182-.217,1.147,1.147,0,0,1,1.5-1.118.215.215,0,1,0,.134-.409,1.577,1.577,0,0,0-2.066,1.537.216.216,0,0,0,.22.21Z" transform="translate(-457.269 -311.689)" fill="#290920"/>
          </g>
        </g>
        <g id="Grupo_13625" data-name="Grupo 13625" transform="translate(23.272 11.651)">
          <g id="Grupo_13624" data-name="Grupo 13624">
            <path id="Trazado_75618" data-name="Trazado 75618" d="M459.951,314.672a.215.215,0,0,0,.123-.361l-.543-.571a.215.215,0,1,0-.311.3l.543.571A.214.214,0,0,0,459.951,314.672Z" transform="translate(-459.161 -313.674)" fill="#290920"/>
          </g>
        </g>
        <g id="Grupo_13627" data-name="Grupo 13627" transform="translate(15.519 7.565)">
          <g id="Grupo_13626" data-name="Grupo 13626">
            <path id="Trazado_75619" data-name="Trazado 75619" d="M428.115,296.586a.252.252,0,0,0,.071-.476,2.8,2.8,0,0,0-2.76.2.252.252,0,0,0,.284.417,2.318,2.318,0,0,1,2.256-.163A.248.248,0,0,0,428.115,296.586Z" transform="translate(-425.316 -295.838)" fill="#290920"/>
          </g>
        </g>
        <g id="Grupo_13629" data-name="Grupo 13629" transform="translate(10.996 8.148)">
          <g id="Grupo_13628" data-name="Grupo 13628">
            <path id="Trazado_75620" data-name="Trazado 75620" d="M408.222,299.225a.252.252,0,0,0,.116-.448,2.035,2.035,0,0,0-2.706.265.252.252,0,1,0,.38.331,1.538,1.538,0,0,1,2.017-.2A.252.252,0,0,0,408.222,299.225Z" transform="translate(-405.569 -298.381)" fill="#290920"/>
          </g>
        </g>
        <g id="Grupo_13630" data-name="Grupo 13630" transform="translate(15.953 19.156)">
          <path id="Trazado_75621" data-name="Trazado 75621" d="M427.209,348.509c1.5.083,4.332-2.072,4.332-2.072a5.959,5.959,0,0,1-4.3,2.883Z" transform="translate(-427.209 -346.437)" fill="#231e31"/>
        </g>
        <g id="Grupo_13631" data-name="Grupo 13631" transform="translate(17.249 12.387)">
          <path id="Trazado_75622" data-name="Trazado 75622" d="M432.961,318.5a1.152,1.152,0,1,0,.6-1.515A1.152,1.152,0,0,0,432.961,318.5Z" transform="translate(-432.866 -316.887)" fill="#e87555"/>
        </g>
        <g id="Grupo_13632" data-name="Grupo 13632" transform="translate(10.436 13.469)">
          <path id="Trazado_75623" data-name="Trazado 75623" d="M403.22,323.224a1.152,1.152,0,1,0,.6-1.515A1.152,1.152,0,0,0,403.22,323.224Z" transform="translate(-403.125 -321.614)" fill="#e87555"/>
        </g>
        <g id="Grupo_13633" data-name="Grupo 13633" transform="translate(9.273 1.421)">
          <path id="Trazado_75624" data-name="Trazado 75624" d="M411.021,278.729c-.4.556-.354,4.231-.749,3.942s-.735-6.635-.735-6.635-3.294-1.769-3.916-4.081c0,0-1.852,6.436-7.572,6.687,0,0-.031-9.927,7.556-9.619S413.135,276,413.135,276Z" transform="translate(-398.048 -269.015)" fill="#231e31"/>
        </g>
        <g id="Grupo_13635" data-name="Grupo 13635" transform="translate(9.152 0.768)">
          <g id="Grupo_13634" data-name="Grupo 13634">
            <path id="Trazado_75625" data-name="Trazado 75625" d="M406.87,266.578c5.851,1.836,4.052,8.423,4.052,8.423a6.647,6.647,0,0,0-4.051-6.423,7.239,7.239,0,0,0-9.353,2.691C398.261,269.585,400.967,264.726,406.87,266.578Z" transform="translate(-397.518 -266.164)" fill="#fff"/>
          </g>
        </g>
      </g>
      <g id="Grupo_13666" data-name="Grupo 13666" transform="translate(14.327 33.197)">
        <g id="Grupo_13637" data-name="Grupo 13637" transform="translate(26.065 42.512)">
          <path id="Trazado_75626" data-name="Trazado 75626" d="M373.041,455.29l.885,10.241h-3.507l-1.017-9.619Z" transform="translate(-369.402 -455.29)" fill="#f39e6e"/>
        </g>
        <g id="Grupo_13638" data-name="Grupo 13638" transform="translate(0 23.575)">
          <path id="Trazado_75627" data-name="Trazado 75627" d="M266.638,372.622c-1.217.707-8.3,4.092-9.311,7.373-1.037,3.356-1.716,12.442-1.716,12.442l5.491.648-.293,8.715h22.2l-.807-8.934,4-1.163s-2-12.66-3.106-14.26-8.841-4.821-8.841-4.821Z" transform="translate(-255.611 -372.622)" fill="#7bb7f0"/>
        </g>
        <g id="Grupo_13639" data-name="Grupo 13639" transform="translate(0.63 43.54)">
          <path id="Trazado_75628" data-name="Trazado 75628" d="M259.173,459.778l4.859.563-.409,8.651H258.36Z" transform="translate(-258.36 -459.778)" fill="#f39e6e"/>
        </g>
        <g id="Grupo_13640" data-name="Grupo 13640" transform="translate(1.365 43.54)">
          <path id="Trazado_75629" data-name="Trazado 75629" d="M266.487,460.746l.018-.4-4.859-.563-.078.93Z" transform="translate(-261.568 -459.778)" fill="#231e31"/>
        </g>
        <g id="Grupo_13641" data-name="Grupo 13641" transform="translate(24.954 31.336)">
          <path id="Trazado_75630" data-name="Trazado 75630" d="M366.295,418.416a.224.224,0,0,1-.222-.195l-1.521-11.465A.224.224,0,0,1,365,406.7l1.521,11.465a.224.224,0,0,1-.193.252Z" transform="translate(-364.549 -406.503)" fill="#4d99e0"/>
        </g>
        <g id="Grupo_13642" data-name="Grupo 13642" transform="translate(10.367 21.837)">
          <path id="Trazado_75631" data-name="Trazado 75631" d="M308.28,365.341a2.22,2.22,0,0,1,1.409,1.362c.375.894,1.092,5.749.171,6.108-.983.384-3.683-3.507-3.683-3.507s-3.037,3.965-3.81,3.854-2.781-6.972-.3-7.863C303.791,364.679,308.28,365.341,308.28,365.341Z" transform="translate(-300.868 -365.033)" fill="#fff"/>
        </g>
        <g id="Grupo_13643" data-name="Grupo 13643" transform="translate(7.866)">
          <path id="Trazado_75632" data-name="Trazado 75632" d="M305.7,283.678s5.231-4.451.1-9.274c0,0,2.648.425,2.809.077s-3.723-3.092-7.557-4.319c-3.607-1.155-6.634.1-7.676,1.13a4.2,4.2,0,0,0-1.009,2.745c-2.454-.226-2.643,2.178-2.252,3.616.509,1.873,3.608,9.076,3.608,9.076Z" transform="translate(-289.949 -269.702)" fill="#231e31"/>
        </g>
        <g id="Grupo_13645" data-name="Grupo 13645" transform="translate(7.669 2.047)">
          <g id="Grupo_13644" data-name="Grupo 13644">
            <path id="Trazado_75633" data-name="Trazado 75633" d="M293.147,299.145l-.6-8.754s-3.493.789-3.457-1.99c.032-2.476,2.719-2.372,3.875-1.079,0,0-1.369-8.81,6.111-8.68s6.442,10.281,6.2,12.739a6.245,6.245,0,0,1-6.019,6.034l-.118,2.67s-.076,2.339-2.265,2.188A4.389,4.389,0,0,1,293.147,299.145Z" transform="translate(-289.089 -278.64)" fill="#f39e6e"/>
          </g>
        </g>
        <g id="Grupo_13647" data-name="Grupo 13647" transform="translate(16.081 9.909)">
          <g id="Grupo_13646" data-name="Grupo 13646">
            <path id="Trazado_75634" data-name="Trazado 75634" d="M325.84,313.563a.8.8,0,1,0,.974-.578A.8.8,0,0,0,325.84,313.563Z" transform="translate(-325.815 -312.961)" fill="#231e31"/>
          </g>
        </g>
        <g id="Grupo_13649" data-name="Grupo 13649" transform="translate(20.111 10.537)">
          <g id="Grupo_13648" data-name="Grupo 13648">
            <path id="Trazado_75635" data-name="Trazado 75635" d="M343.433,316.3a.8.8,0,1,0,.974-.578A.8.8,0,0,0,343.433,316.3Z" transform="translate(-343.408 -315.701)" fill="#231e31"/>
          </g>
        </g>
        <g id="Grupo_13651" data-name="Grupo 13651" transform="translate(18.642 11.482)">
          <g id="Grupo_13650" data-name="Grupo 13650">
            <path id="Trazado_75636" data-name="Trazado 75636" d="M337.175,322.448a.215.215,0,0,1,.01-.426c.405-.043.623-.137.728-.312.164-.275.087-.823-.224-1.586a.215.215,0,0,1,.118-.28.218.218,0,0,1,.28.118c.379.931.441,1.556.194,1.969a1.281,1.281,0,0,1-1.052.519A.208.208,0,0,1,337.175,322.448Z" transform="translate(-336.993 -319.828)" fill="#290920"/>
          </g>
        </g>
        <g id="Grupo_13653" data-name="Grupo 13653" transform="translate(17.199 13.983)">
          <g id="Grupo_13652" data-name="Grupo 13652">
            <path id="Trazado_75637" data-name="Trazado 75637" d="M332.564,332.164h0a2.989,2.989,0,0,1-1.819-1.069.215.215,0,1,1,.335-.269,2.557,2.557,0,0,0,1.555.914.215.215,0,0,1-.069.424Z" transform="translate(-330.695 -330.745)" fill="#290920"/>
          </g>
        </g>
        <g id="Grupo_13655" data-name="Grupo 13655" transform="translate(8.737 10.79)">
          <g id="Grupo_13654" data-name="Grupo 13654">
            <path id="Trazado_75638" data-name="Trazado 75638" d="M295.72,318.626a.215.215,0,0,1-.182-.217,1.146,1.146,0,0,0-1.5-1.118.215.215,0,1,1-.134-.409,1.577,1.577,0,0,1,2.066,1.537.216.216,0,0,1-.22.21Z" transform="translate(-293.754 -316.806)" fill="#290920"/>
          </g>
        </g>
        <g id="Grupo_13657" data-name="Grupo 13657" transform="translate(9.546 11.245)">
          <g id="Grupo_13656" data-name="Grupo 13656">
            <path id="Trazado_75639" data-name="Trazado 75639" d="M297.467,319.79a.215.215,0,0,1-.123-.36l.543-.571a.215.215,0,1,1,.311.3l-.543.571A.214.214,0,0,1,297.467,319.79Z" transform="translate(-297.285 -318.792)" fill="#290920"/>
          </g>
        </g>
        <g id="Grupo_13659" data-name="Grupo 13659" transform="translate(15.259 7.159)">
          <g id="Grupo_13658" data-name="Grupo 13658">
            <path id="Trazado_75640" data-name="Trazado 75640" d="M322.438,301.7a.252.252,0,0,1-.071-.476,2.8,2.8,0,0,1,2.76.2.252.252,0,1,1-.284.417,2.318,2.318,0,0,0-2.255-.162A.25.25,0,0,1,322.438,301.7Z" transform="translate(-322.225 -300.956)" fill="#290920"/>
          </g>
        </g>
        <g id="Grupo_13661" data-name="Grupo 13661" transform="translate(19.928 7.742)">
          <g id="Grupo_13660" data-name="Grupo 13660">
            <path id="Trazado_75641" data-name="Trazado 75641" d="M342.823,304.343a.248.248,0,0,1-.161-.095.252.252,0,0,1,.045-.354,2.035,2.035,0,0,1,2.706.265.252.252,0,1,1-.38.331,1.538,1.538,0,0,0-2.017-.2A.252.252,0,0,1,342.823,304.343Z" transform="translate(-342.61 -303.499)" fill="#290920"/>
          </g>
        </g>
        <g id="Grupo_13662" data-name="Grupo 13662" transform="translate(13.562 18.776)">
          <path id="Trazado_75642" data-name="Trazado 75642" d="M319.092,353.716c-1.5.083-4.276-2.046-4.276-2.046a7.833,7.833,0,0,0,4.217,3.37Z" transform="translate(-314.816 -351.67)" fill="#231e31"/>
        </g>
        <g id="Grupo_13663" data-name="Grupo 13663" transform="translate(14.236 11.981)">
          <path id="Trazado_75643" data-name="Trazado 75643" d="M319.972,323.615a1.152,1.152,0,1,1-.6-1.515A1.152,1.152,0,0,1,319.972,323.615Z" transform="translate(-317.762 -322.005)" fill="#e87555"/>
        </g>
        <g id="Grupo_13664" data-name="Grupo 13664" transform="translate(21.049 13.064)">
          <path id="Trazado_75644" data-name="Trazado 75644" d="M349.713,328.342a1.152,1.152,0,1,1-.6-1.515A1.152,1.152,0,0,1,349.713,328.342Z" transform="translate(-347.502 -326.732)" fill="#e87555"/>
        </g>
        <g id="Grupo_13665" data-name="Grupo 13665" transform="translate(9.43 1.015)">
          <path id="Trazado_75645" data-name="Trazado 75645" d="M298.893,283.847c.4.556.353,4.231.749,3.942s.736-6.635.736-6.635,3.294-1.769,3.916-4.081c0,0,1.852,6.436,7.573,6.687,0,0,.03-9.927-7.556-9.619s-7.531,6.978-7.531,6.978Z" transform="translate(-296.779 -274.133)" fill="#231e31"/>
        </g>
      </g>
      <g id="Grupo_13667" data-name="Grupo 13667" transform="translate(41.517 34.664)">
        <path id="Trazado_75646" data-name="Trazado 75646" d="M375.132,283.379l-.82-7.274,2.514,8.105Z" transform="translate(-374.312 -276.104)" fill="#231e31"/>
      </g>
      <g id="Grupo_13668" data-name="Grupo 13668" transform="translate(6.008 35.244)">
        <path id="Trazado_75647" data-name="Trazado 75647" d="M220.6,280.876s-1.845,3.37-1.153,4.876a20.768,20.768,0,0,0,2.383,3.534l3.02-10.184-2.943-.463Z" transform="translate(-219.293 -278.639)" fill="#f39e6e"/>
      </g>
      <g id="Grupo_13669" data-name="Grupo 13669" transform="translate(0 29.404)">
        <path id="Trazado_75648" data-name="Trazado 75648" d="M210.02,253.143c-2.766,1.974-17.633,18.617-16.93,26.778s15.74,22.9,18.837,19.3l3.765-5.148a2.436,2.436,0,0,0-.507-3.2c-1.645-1.632-11.057-11.488-11.057-11.488l8.069-12.542Z" transform="translate(-193.066 -253.143)" fill="#c75e21"/>
      </g>
      <g id="Grupo_13670" data-name="Grupo 13670" transform="translate(18.068 30.901)">
        <path id="Trazado_75649" data-name="Trazado 75649" d="M273.374,269h-.014a.224.224,0,0,1-.21-.238,22.756,22.756,0,0,0-1.194-8.785.224.224,0,1,1,.423-.146,23.209,23.209,0,0,1,1.218,8.96A.224.224,0,0,1,273.374,269Z" transform="translate(-271.944 -259.679)" fill="#954614"/>
      </g>
      <g id="Grupo_13671" data-name="Grupo 13671" transform="translate(6.387 55.327)">
        <path id="Trazado_75650" data-name="Trazado 75650" d="M222.573,369.347h-.015a.224.224,0,0,1-.209-.238,2.686,2.686,0,0,1,1.435-2.152,2.436,2.436,0,0,0-2.467.332.224.224,0,0,1-.289-.343,2.846,2.846,0,0,1,3.4-.137.224.224,0,0,1-.069.4,2.212,2.212,0,0,0-1.565,1.93A.224.224,0,0,1,222.573,369.347Z" transform="translate(-220.949 -366.31)" fill="#954614"/>
      </g>
      <g id="Grupo_13672" data-name="Grupo 13672" transform="translate(20.628 71.748)">
        <path id="Trazado_75651" data-name="Trazado 75651" d="M286.29,438s7.44,2.431,7.89,3.359-3.956,0-3.956,0,5.828,4.045,5.766,4.81-6.036-2.633-6.036-2.633,5.328,3.648,5.227,4.3-6.129-2.806-6.129-2.806,5.493,3.805,5.01,4.205-5.807-2.634-5.807-2.634,4.176,5.155,3.826,5.6-4.453-4.319-6.124-5.818a14.851,14.851,0,0,1-2.834-3.833Z" transform="translate(-283.122 -437.998)" fill="#f39e6e"/>
      </g>
      <g id="Grupo_13673" data-name="Grupo 13673" transform="translate(18.861 70.336)">
        <path id="Trazado_75652" data-name="Trazado 75652" d="M275.406,436.985s.979,1.258,1.589,1.24,3.666-4.766,3.835-5.176-1.66-1.213-1.66-1.213Z" transform="translate(-275.406 -431.837)" fill="#954614"/>
      </g>
      <g id="Grupo_13679" data-name="Grupo 13679" transform="translate(48.217 12.004)">
        <g id="Grupo_13674" data-name="Grupo 13674" transform="translate(8.982 17.4)">
          <path id="Trazado_75653" data-name="Trazado 75653" d="M459.154,253.143c2.148,2.634,12.1,22.609,9.266,30.295s-21.224,17.941-23.261,13.651l-2.273-5.959a2.436,2.436,0,0,1,1.333-2.953c2.018-1.14,13.7-8.164,13.7-8.164l-4.475-14.227Z" transform="translate(-442.773 -253.143)" fill="#9057ec"/>
        </g>
        <g id="Grupo_13675" data-name="Grupo 13675" transform="translate(12.941)">
          <path id="Trazado_75654" data-name="Trazado 75654" d="M463.352,177.183s6.5,2.775,7.529,4.892-1.171,4.405-1.171,4.405,2.845.957,2.974,3.726a5.381,5.381,0,0,1-2.309,4.376,5.159,5.159,0,0,1,1.2,3.613,3.221,3.221,0,0,1-4.158,2.545c-1.877-.576-5.036-2.963-3-6.29,0,0-4.128-.536-2.017-4.127,0,0-3.611-3.982-1.854-6.682A18.644,18.644,0,0,0,463.352,177.183Z" transform="translate(-460.057 -177.183)" fill="#181843"/>
        </g>
        <g id="Grupo_13676" data-name="Grupo 13676" transform="translate(20.239 24.84)">
          <path id="Trazado_75655" data-name="Trazado 75655" d="M494.815,302.14a.224.224,0,0,1-.2-.126,31.51,31.51,0,0,1-1.793-6.581c-.172-.851-.335-1.655-.492-2.309a11.75,11.75,0,0,1,.391-7.364.224.224,0,0,1,.41.18,11.314,11.314,0,0,0-.366,7.079c.159.662.323,1.469.5,2.325a31.794,31.794,0,0,0,1.756,6.474.224.224,0,0,1-.2.322Z" transform="translate(-491.919 -285.625)" fill="#6b37c8"/>
        </g>
        <g id="Grupo_13677" data-name="Grupo 13677" transform="translate(0 57.1)">
          <path id="Trazado_75656" data-name="Trazado 75656" d="M411.913,426.459s-5.67.277-6.162.84,2.768.757,2.768.757-4.851,1.715-4.955,2.262,4.727-.687,4.727-.687-4.425,1.533-4.479,2.007,4.825-.791,4.825-.791-4.571,1.612-4.31,1.983,4.567-.732,4.567-.732-3.445,1.114-3.286,1.5,3.479-.476,4.935-1.206a10.769,10.769,0,0,0,2.716-2.139Z" transform="translate(-403.562 -426.459)" fill="#f39e6e"/>
        </g>
        <g id="Grupo_13678" data-name="Grupo 13678" transform="translate(7.172 55.386)">
          <path id="Trazado_75657" data-name="Trazado 75657" d="M439.067,424.935s-1.276.956-1.86.777-2.279-5.564-2.334-6,1.921-.732,1.921-.732Z" transform="translate(-434.872 -418.976)" fill="#6b37c8"/>
        </g>
      </g>
      <g id="Grupo_13680" data-name="Grupo 13680" transform="translate(40.914 76.101)">
        <path id="Trazado_75658" data-name="Trazado 75658" d="M374.832,457l-3.151.916.037.418,3.2-.346Z" transform="translate(-371.681 -457.002)" fill="#231e31"/>
      </g>
      <g id="Grupo_13683" data-name="Grupo 13683" transform="translate(64.069 48.122)">
        <g id="Grupo_13681" data-name="Grupo 13681">
          <path id="Trazado_75659" data-name="Trazado 75659" d="M473.744,341.093a3.755,3.755,0,0,0,4.62.526,3.8,3.8,0,0,0,.609-5.556,3.535,3.535,0,0,0-6.021,1.317A3.771,3.771,0,0,0,473.744,341.093Z" transform="translate(-472.767 -334.86)" fill="#231e31"/>
        </g>
        <g id="Grupo_13682" data-name="Grupo 13682" transform="translate(4.799 3.516)">
          <path id="Trazado_75660" data-name="Trazado 75660" d="M502.068,351.919c.079-1.066-7.013-2.472-8.086-1.218s1.379,7.618,2.4,7.559.409-3.47.409-3.47a2.265,2.265,0,0,0,2.414.959c1.421-.494-1.165-2.919-1.165-2.919S501.975,353.166,502.068,351.919Z" transform="translate(-493.716 -350.208)" fill="#231e31"/>
        </g>
      </g>
      <g id="Grupo_13684" data-name="Grupo 13684" transform="translate(6.868 32.716)">
        <path id="Trazado_75661" data-name="Trazado 75661" d="M226.086,267.6s-2.665,2.871-2.973,4.087.565,4.581,1.243,4.244.6-2.874.6-2.874l2.79-3.219Z" transform="translate(-223.05 -267.604)" fill="#f39e6e"/>
      </g>
    </g>
  </g>
</svg>
