<svg xmlns="http://www.w3.org/2000/svg" xmlns:xlink="http://www.w3.org/1999/xlink" width="47" height="47" viewBox="0 0 47 47">
  <defs>
    <filter id="Elipse_775" x="0" y="0" width="47" height="47" filterUnits="userSpaceOnUse">
      <feOffset dy="3" input="SourceAlpha"/>
      <feGaussianBlur stdDeviation="3" result="blur"/>
      <feFlood flood-color="#dbdbdb" flood-opacity="0.161"/>
      <feComposite operator="in" in2="blur"/>
      <feComposite in="SourceGraphic"/>
    </filter>
  </defs>
  <g id="Tarjeta_icon" transform="translate(-1648 -12073)">
    <g transform="matrix(1, 0, 0, 1, 1648, 12073)" filter="url(#Elipse_775)">
      <circle id="Elipse_775-2" data-name="Elipse 775" cx="14.5" cy="14.5" r="14.5" transform="translate(9 6)" fill="#3044b2"/>
    </g>
    <g id="Mastercard_Icon" data-name="Mastercard Icon" transform="translate(1663.323 12088.39)">
      <path id="Shape" d="M10.218,5.11A5.109,5.109,0,1,1,5.109,0,5.109,5.109,0,0,1,10.218,5.11Z" transform="translate(0 0)" fill="#fff" opacity="0.284"/>
      <path id="Shape-2" data-name="Shape" d="M5.111,0A5.081,5.081,0,0,0,2.058,1.019h0a4.379,4.379,0,0,1,.5.462L1.494,1.5a5.255,5.255,0,0,0-.461.541H2.907a4.749,4.749,0,0,1,.394.509H.693a5.092,5.092,0,0,0-.261.509H3.6a4.352,4.352,0,0,1,.22.493H.244A4.922,4.922,0,0,0,.1,4.092H3.968c.038.177.067.34.087.507H.026C.009,4.768,0,4.938,0,5.11H4.084a4.489,4.489,0,0,1-.031.511H.026q.026.26.077.511H3.962c-.04.166-.086.332-.144.5H.233a4.961,4.961,0,0,0,.192.51H3.6a4.655,4.655,0,0,1-.3.509H.684a4.972,4.972,0,0,0,.341.513L2.907,8.2a4.974,4.974,0,0,1-.554.477c.01.008-.3,0-.911-.011A5.109,5.109,0,1,0,5.111,0Z" transform="translate(6.134 0)" fill="#fff"/>
    </g>
  </g>
</svg>
