<svg xmlns="http://www.w3.org/2000/svg" xmlns:xlink="http://www.w3.org/1999/xlink" width="53.055" height="58.816" viewBox="0 0 53.055 58.816">
  <defs>
    <linearGradient id="linear-gradient" x1="0.5" x2="0.5" y2="1" gradientUnits="objectBoundingBox">
      <stop offset="0" stop-color="#4f78ae"/>
      <stop offset="1" stop-color="#262158"/>
    </linearGradient>
  </defs>
  <g id="document_icon" transform="translate(-2.29 -0.584)">
    <g id="Grupo_10817" data-name="Grupo 10817" transform="translate(2.29 0.584)">
      <path id="Trazado_3765" data-name="Trazado 3765" d="M12.568,6.634c11.68,0,19.7-6.05,25.329-6.05S55.345,3.819,55.345,29.71,39.444,59.4,33.253,59.4C4.266,59.4-8.117,6.634,12.568,6.634Z" transform="translate(-2.29 -0.584)" fill="#efefef"/>
    </g>
    <g id="Grupo_10818" data-name="Grupo 10818" transform="translate(11.51 10.996)">
      <path id="Trazado_3766" data-name="Trazado 3766" d="M33.45,8.439a3.323,3.323,0,0,0-2.9-1.689H11.127A3.387,3.387,0,0,0,7.75,10.127V36.3a3.34,3.34,0,0,0,.268,1.314l-.268.375a3.323,3.323,0,0,0,2.9,1.689H30.073A3.387,3.387,0,0,0,33.45,36.3V10.127a3.34,3.34,0,0,0-.268-1.314Z" transform="translate(-7.75 -6.75)" fill="url(#linear-gradient)"/>
    </g>
    <g id="Grupo_10819" data-name="Grupo 10819" transform="translate(19.952 17.75)">
      <path id="Trazado_3767" data-name="Trazado 3767" d="M38.923,38.611V14.127a3.376,3.376,0,0,0-3.377-3.377H16.127a3.376,3.376,0,0,0-3.377,3.377V38.611a3.376,3.376,0,0,0,3.377,3.377H35.546A3.376,3.376,0,0,0,38.923,38.611Z" transform="translate(-12.75 -10.75)" fill="#f3f3f1"/>
    </g>
    <g id="Grupo_10820" data-name="Grupo 10820" transform="translate(11.51 10.996)" opacity="0.147">
      <path id="Trazado_3768" data-name="Trazado 3768" d="M11.549,37.989l.268-.375a3.34,3.34,0,0,1-.268-1.314V10.127A3.387,3.387,0,0,1,14.926,6.75h-3.8A3.387,3.387,0,0,0,7.75,10.127V36.3a3.34,3.34,0,0,0,.268,1.314l-.268.375a3.323,3.323,0,0,0,2.9,1.689h3.8A3.323,3.323,0,0,1,11.549,37.989Z" transform="translate(-7.75 -6.75)" fill="#5c00b8"/>
    </g>
    <g id="Grupo_10821" data-name="Grupo 10821" transform="translate(19.952 17.75)">
      <path id="Trazado_3769" data-name="Trazado 3769" d="M16.549,38.611V14.127a3.376,3.376,0,0,1,3.377-3.377h-3.8a3.376,3.376,0,0,0-3.377,3.377V38.611a3.376,3.376,0,0,0,3.377,3.377h3.8A3.376,3.376,0,0,1,16.549,38.611Z" transform="translate(-12.75 -10.75)" fill="#d5dbe1"/>
    </g>
    <g id="Grupo_10822" data-name="Grupo 10822" transform="translate(26.707 35.902)">
      <path id="Trazado_3770" data-name="Trazado 3770" d="M16.75,21.5H29.414v2.533H16.75Z" transform="translate(-16.75 -21.5)"/>
    </g>
    <g id="Grupo_10823" data-name="Grupo 10823" transform="translate(26.707 42.656)">
      <path id="Trazado_3771" data-name="Trazado 3771" d="M16.75,25.5H29.414v2.533H16.75Z" transform="translate(-16.75 -25.5)"/>
    </g>
    <g id="Grupo_10824" data-name="Grupo 10824" transform="translate(26.707 29.992)">
      <path id="Trazado_3772" data-name="Trazado 3772" d="M16.75,18H29.414v2.533H16.75Z" transform="translate(-16.75 -18)"/>
    </g>
    <g id="Grupo_10825" data-name="Grupo 10825" transform="translate(26.707 23.238)">
      <path id="Trazado_3773" data-name="Trazado 3773" d="M16.75,14H29.414v2.533H16.75Z" transform="translate(-16.75 -14)"/>
    </g>
    <g id="Grupo_10826" data-name="Grupo 10826" transform="translate(10.243 9.729)">
      <path id="Trazado_3774" data-name="Trazado 3774" d="M12.91,41.46H11.644A4.647,4.647,0,0,1,7,36.816V10.644A4.647,4.647,0,0,1,11.644,6H31.062a4.612,4.612,0,0,1,4.007,2.33l.625,1.1-2.2,1.25-.625-1.1a2.046,2.046,0,0,0-1.8-1.047H11.644a2.114,2.114,0,0,0-2.111,2.111V36.816a2.114,2.114,0,0,0,2.111,2.111H12.91Z" transform="translate(-7 -6)"/>
    </g>
    <g id="Grupo_10827" data-name="Grupo 10827" transform="translate(18.686 16.484)">
      <path id="Trazado_3775" data-name="Trazado 3775" d="M36.062,43.771H16.644A4.647,4.647,0,0,1,12,39.128V14.644A4.647,4.647,0,0,1,16.644,10H36.062a4.647,4.647,0,0,1,4.644,4.644V39.128A4.647,4.647,0,0,1,36.062,43.771ZM16.644,12.533a2.114,2.114,0,0,0-2.111,2.111V39.128a2.114,2.114,0,0,0,2.111,2.111H36.062a2.114,2.114,0,0,0,2.111-2.111V14.644a2.114,2.114,0,0,0-2.111-2.111Z" transform="translate(-12 -10)"/>
    </g>
    <g id="Grupo_10828" data-name="Grupo 10828" transform="translate(49.925 42.234)">
      <path id="Trazado_3776" data-name="Trazado 3776" d="M33.033,30.316a2.533,2.533,0,1,1,2.533-2.533A2.536,2.536,0,0,1,33.033,30.316Zm0-3.377a.844.844,0,1,0,.844.844A.846.846,0,0,0,33.033,26.939Z" transform="translate(-30.5 -25.25)" fill="#a4afc1"/>
    </g>
    <g id="Grupo_10829" data-name="Grupo 10829" transform="translate(10.139 4.507)">
      <path id="Trazado_3777" data-name="Trazado 3777" d="M0,0H3.377V1.689H0Z" transform="translate(0 2.388) rotate(-45)" fill="#a4afc1"/>
    </g>
    <g id="Grupo_10830" data-name="Grupo 10830" transform="translate(3.273 11.371)">
      <path id="Trazado_3778" data-name="Trazado 3778" d="M0,0H3.377V1.689H0Z" transform="translate(0 2.388) rotate(-45)" fill="#a4afc1"/>
    </g>
    <g id="Grupo_10831" data-name="Grupo 10831" transform="translate(3.573 4.506)">
      <path id="Trazado_3779" data-name="Trazado 3779" d="M0,0H1.689V3.377H0Z" transform="translate(0 1.194) rotate(-45)" fill="#a4afc1"/>
    </g>
  </g>
</svg>
