<svg xmlns="http://www.w3.org/2000/svg" width="44" height="44" viewBox="0 0 44 44">
  <g id="family_icon" transform="translate(-6009 -3927)">
    <g id="Grupo_13033" data-name="Grupo 13033" transform="translate(6008.67 3926.918)">
      <g id="Grupo_10448" data-name="Grupo 10448" transform="translate(0 0)" opacity="0.103">
        <rect id="Rect치ngulo_504" data-name="Rect치ngulo 504" width="44" height="44" rx="22" transform="translate(0.33 0.082)" fill="#3e358b"/>
      </g>
      <g id="Grupo_10447" data-name="Grupo 10447" transform="translate(4.23 5.076)">
        <rect id="Rect치ngulo_504-2" data-name="Rect치ngulo 504" width="35" height="35" rx="17.5" transform="translate(0.1 0.006)" fill="#3e358b"/>
      </g>
    </g>
    <g id="family-2" transform="translate(6010.445 3916.877)">
      <g id="Grupo_10922" data-name="Grupo 10922" transform="translate(20.013 29.342)">
        <path id="Trazado_4017" data-name="Trazado 4017" d="M259.417,334.368l-.75-5.8c-.469-3.649-2.038-4.239-4.54-4.921v0l-3.11,2.108a1.391,1.391,0,0,1-.821.354h0a1.392,1.392,0,0,1-.821-.354l-3.11-2.108v0c-2.5.682-5.6,1.272-6.07,4.921l-.75,5.8a1.661,1.661,0,0,0-.012.175v0c0,.314.158.4.538.4h18.922C259.334,334.946,259.417,334.368,259.417,334.368Z" transform="translate(-239.431 -323.644)" fill="#f8f2f0" fill-rule="evenodd"/>
      </g>
      <g id="Grupo_10923" data-name="Grupo 10923" transform="translate(33.494 29.342)">
        <path id="Trazado_4018" data-name="Trazado 4018" d="M406.578,328.772c-.469-3.649-2.136-4.444-4.638-5.126v0l-1.214.821c2.45,2.072,2.547,5.2,2.547,8.449a10.184,10.184,0,0,1-.248,2.237H406.8c.443,0,.585-.12.526-.578Z" transform="translate(-400.725 -323.644)" fill="#eee1dc" fill-rule="evenodd"/>
      </g>
      <g id="Grupo_10924" data-name="Grupo 10924" transform="translate(26.844 26.912)">
        <path id="Trazado_4019" data-name="Trazado 4019" d="M325.918,299.739l3.11-2.745c-.882-.241-1.113-1.376-1.295-1.744-.882-.7-3.874-1.109-5.275,0-.179.368-.413,1.5-1.295,1.744l3.11,2.745a1.391,1.391,0,0,0,.821.354h0A1.391,1.391,0,0,0,325.918,299.739Z" transform="translate(-321.164 -294.564)" fill="#fed1a3" fill-rule="evenodd"/>
      </g>
      <g id="Grupo_10925" data-name="Grupo 10925" transform="translate(27.568 27.598)">
        <path id="Trazado_4020" data-name="Trazado 4020" d="M336.967,304.521c-.882-.241-1.113-1.376-1.295-1.744a4.856,4.856,0,0,1-5.275,0,5.829,5.829,0,0,1-.571,1.218c1.219.668,3.592,1.145,4.891.517.434-.212.507.054.507.054a2.128,2.128,0,0,0,.523.772l0,0Z" transform="translate(-329.826 -302.777)" fill="#ffbc85" fill-rule="evenodd"/>
      </g>
      <g id="Grupo_10926" data-name="Grupo 10926" transform="translate(24.036 15.984)">
        <path id="Trazado_4021" data-name="Trazado 4021" d="M296.941,175.441a8.286,8.286,0,0,0,4-5.2,4.462,4.462,0,0,0,.085-.836v-2.344h-1.224c-2.625,0-3.174-3.236-6.381-3.236h-2.132c-2.457,0-.585,3.729-3.412,3.729h-.318v1.85a4.465,4.465,0,0,0,.085.835,8.31,8.31,0,0,0,4.018,5.2,7.077,7.077,0,0,0,.953.439,4.347,4.347,0,0,0,3.37,0A7.073,7.073,0,0,0,296.941,175.441Z" transform="translate(-287.563 -163.827)" fill="#ffe5c1" fill-rule="evenodd"/>
      </g>
      <g id="Grupo_10927" data-name="Grupo 10927" transform="translate(24.032 11.009)">
        <path id="Trazado_4022" data-name="Trazado 4022" d="M300.987,109.943c0-4.951-7.954-7.42-10.449-4.18-3.257.288-3.018,4.626-3.018,5.2v2.679h.318c2.827,0,.955-3.729,3.412-3.729h2.132c3.207,0,3.754,3.236,6.381,3.236h1.224v-3.205Z" transform="translate(-287.516 -104.299)" fill="#6d80aa" fill-rule="evenodd"/>
      </g>
      <g id="Grupo_10928" data-name="Grupo 10928" transform="translate(29.903 11.008)">
        <path id="Trazado_4023" data-name="Trazado 4023" d="M365.357,109.938c0-3.651-4.33-5.955-7.6-5.61,2.849.467,5.756,2.554,5.756,5.546v3.205a3.032,3.032,0,0,0,.62.064h1.224v-3.205Z" transform="translate(-357.757 -104.294)" fill="#49679b" fill-rule="evenodd"/>
      </g>
      <g id="Grupo_10929" data-name="Grupo 10929" transform="translate(29.714 19.793)">
        <path id="Trazado_4024" data-name="Trazado 4024" d="M357.747,217.809c.163-.045.328-.1.5-.165.193-.071.384-.153.573-.243a.009.009,0,0,1,.007,0,6.433,6.433,0,0,1-1.08.411Zm1.087-.415.007,0Zm0,0c.092-.045.184-.09.274-.139h0c-.087.047-.175.092-.264.137l-.007,0Zm.007,0c.09-.045.179-.09.264-.137a.1.1,0,0,1-.021.012C359,217.309,358.924,217.351,358.841,217.391Zm.358-.186a8.287,8.287,0,0,0,4-5.2,4.464,4.464,0,0,0,.085-.836v-1.706h-1.224a3.033,3.033,0,0,1-.62-.064v1.706a4.3,4.3,0,0,1-.085.836,8.276,8.276,0,0,1-4,5.2,6.811,6.811,0,0,1-.953.441,5.773,5.773,0,0,1-.9.262,4.076,4.076,0,0,0,2.245-.033h0a6.556,6.556,0,0,0,1.073-.408.009.009,0,0,1,.007,0l.007,0,.007,0c.09-.045.179-.09.266-.137l.019-.012h0l.012-.007c.009-.007.021-.012.033-.019a.206.206,0,0,1,.024-.012Z" transform="translate(-355.5 -209.4)" fill="#fed1a3" fill-rule="evenodd"/>
      </g>
      <g id="Grupo_10930" data-name="Grupo 10930" transform="translate(28.979 24.255)">
        <path id="Trazado_4025" data-name="Trazado 4025" d="M348.5,264.516a2.267,2.267,0,0,1-1.614-.669.627.627,0,0,1,.887-.886,1.029,1.029,0,0,0,1.455,0,.627.627,0,1,1,.887.886A2.267,2.267,0,0,1,348.5,264.516Z" transform="translate(-346.702 -262.777)" fill="#6d80aa"/>
      </g>
      <g id="Grupo_10931" data-name="Grupo 10931" transform="translate(26.623 20.696)">
        <path id="Trazado_4026" data-name="Trazado 4026" d="M320.562,221.735a.625.625,0,0,1-.435-.176.4.4,0,0,0-.547,0,.627.627,0,0,1-.87-.9,1.662,1.662,0,0,1,2.288,0,.627.627,0,0,1-.435,1.078Z" transform="translate(-318.518 -220.201)" fill="#6d80aa"/>
      </g>
      <g id="Grupo_10932" data-name="Grupo 10932" transform="translate(32.259 20.696)">
        <path id="Trazado_4027" data-name="Trazado 4027" d="M387.993,221.73a.625.625,0,0,1-.435-.176.4.4,0,0,0-.549,0,.627.627,0,1,1-.87-.9,1.664,1.664,0,0,1,2.29,0,.627.627,0,0,1-.435,1.078Z" transform="translate(-385.947 -220.196)" fill="#6d80aa"/>
      </g>
      <g id="Grupo_10933" data-name="Grupo 10933" transform="translate(0 11.712)">
        <path id="Trazado_4028" data-name="Trazado 4028" d="M18.461,132.514a6.721,6.721,0,0,1,1.217-.347c.752-.149,1.365-.21.521-1.459-1.29-1.907-1.858-4.68-1.858-9.986a13.513,13.513,0,0,0-.3-2.261c-1.592-6.71-10.529-7.144-12.5-3.344-.082.158-.231.153-.387.179-1.566.25-2.884,2.48-2.884,5.445,0,5.305-.568,8.081-1.858,9.986-.847,1.248-.233,1.31.521,1.461a6.206,6.206,0,0,1,1.2.347c14.816,5.2,2.023,6.825,16.333-.021Z" transform="translate(0 -112.72)" fill="#6d80aa" fill-rule="evenodd"/>
      </g>
      <g id="Grupo_10934" data-name="Grupo 10934" transform="translate(6.231 11.713)">
        <path id="Trazado_4029" data-name="Trazado 4029" d="M84.549,131.066l3.061,1.189c.125-.031.255-.059.389-.087.752-.149,1.365-.21.521-1.459-1.29-1.907-1.858-4.68-1.858-9.986a13.514,13.514,0,0,0-.3-2.261c-1.45-6.106-8.978-7.014-11.81-4.267,3.36-1.572,9.268-.205,10.534,5.131a13.506,13.506,0,0,1,.3,2.261c0,1.61.052,2.988.16,4.177.031.338.073.241-.179.448a6.956,6.956,0,0,0-2.266,4.4c.5.137.983.281,1.448.456Z" transform="translate(-74.553 -112.721)" fill="#49679b" fill-rule="evenodd"/>
      </g>
      <g id="Grupo_10935" data-name="Grupo 10935" transform="translate(6.413 26.777)">
        <path id="Trazado_4030" data-name="Trazado 4030" d="M81.423,298.911l3.082-3.3c-.873-.238-1.1-1.367-1.283-1.73-1.559-1.336-3.2-1.154-5.214,0-.177.363-.408,1.492-1.283,1.73l3.085,3.3A1.1,1.1,0,0,0,81.423,298.911Z" transform="translate(-76.726 -292.946)" fill="#fed1a3" fill-rule="evenodd"/>
      </g>
      <g id="Grupo_10936" data-name="Grupo 10936" transform="translate(4.682 19.635)">
        <path id="Trazado_4031" data-name="Trazado 4031" d="M64.246,215.586a6.436,6.436,0,0,0,3.016-4.8v-1.721c-2.278-.16-1.938-1.9-3.509-1.494a10.391,10.391,0,0,1-2.113.47,10.391,10.391,0,0,1-2.113-.47c-1.573-.406-1.233,1.333-3.509,1.494v1.721a6.439,6.439,0,0,0,3.014,4.8,6.234,6.234,0,0,0,1.2.611,3.647,3.647,0,0,0,2.818,0A6.1,6.1,0,0,0,64.246,215.586Z" transform="translate(-56.018 -207.51)" fill="#ffe5c1" fill-rule="evenodd"/>
      </g>
      <g id="Grupo_10937" data-name="Grupo 10937" transform="translate(0.26 29.441)">
        <path id="Trazado_4032" data-name="Trazado 4032" d="M22.66,336.034H4.973c-.439,0-.578-.12-.519-.574l-.6-5.751a5.2,5.2,0,0,1,1.115-2.792A5.01,5.01,0,0,1,6.9,325.575a18.928,18.928,0,0,1,2.357-.745l3.084,2.089a1.1,1.1,0,0,0,1.613,0l3.082-2.089h0c1.613.441,3.216.843,4.266,2.065a5.193,5.193,0,0,1,1.132,2.813l.743,5.751c.059.454-.08.574-.522.574Z" transform="translate(-3.105 -324.83)" fill="#ffa5c7" fill-rule="evenodd"/>
      </g>
      <g id="Grupo_10938" data-name="Grupo 10938" transform="translate(6.96 20.787)">
        <path id="Trazado_4033" data-name="Trazado 4033" d="M89.222,228.212a6.436,6.436,0,0,0,3.016-4.8v-1.721a2.9,2.9,0,0,1-1.365-.4v1.2a6.439,6.439,0,0,1-3.016,4.8c-.047.033-.1.064-.146.094a5.885,5.885,0,0,1-1.052.519,4,4,0,0,1-1.408.283,3.565,3.565,0,0,1-.95-.134q-.223-.064-.46-.149a5.762,5.762,0,0,1-.568-.25,7.273,7.273,0,0,0,.736.559,6.233,6.233,0,0,0,1.2.611,3.647,3.647,0,0,0,2.818,0A6.1,6.1,0,0,0,89.222,228.212Z" transform="translate(-83.272 -221.288)" fill="#fed1a3" fill-rule="evenodd"/>
      </g>
      <g id="Grupo_10939" data-name="Grupo 10939" transform="translate(7.241 27.711)">
        <path id="Trazado_4034" data-name="Trazado 4034" d="M93.58,305.862c-.873-.238-1.1-1.367-1.283-1.73a4.247,4.247,0,0,1-5.214,0,8.131,8.131,0,0,1-.455,1.046,5.035,5.035,0,0,0,4.2.984,1.649,1.649,0,0,0,.46-.236c.516-.378.354.248.908.873Z" transform="translate(-86.628 -304.132)" fill="#ffbc85" fill-rule="evenodd"/>
      </g>
      <g id="Grupo_10940" data-name="Grupo 10940" transform="translate(12.811 29.441)">
        <path id="Trazado_4035" data-name="Trazado 4035" d="M160.05,329.707a5.192,5.192,0,0,0-1.132-2.813c-1.049-1.223-2.653-1.624-4.266-2.065h0l-1.382.937c.132.04.264.08.391.123a5.742,5.742,0,0,1,2.669,1.6,4.118,4.118,0,0,1,.37.507,5.61,5.61,0,0,1,.759,2.306l.74,5.728h2.073c.441,0,.58-.12.521-.573Z" transform="translate(-153.268 -324.829)" fill="#fe76a8" fill-rule="evenodd"/>
      </g>
      <g id="Grupo_10941" data-name="Grupo 10941" transform="translate(4.581 36.728)">
        <path id="Trazado_4036" data-name="Trazado 4036" d="M56.064,412.627v3.291H54.81v-3.291a.627.627,0,1,1,1.254,0Z" transform="translate(-54.81 -412)" fill="#fe76a8"/>
      </g>
      <g id="Grupo_10942" data-name="Grupo 10942" transform="translate(14.396 38.858)">
        <path id="Trazado_4037" data-name="Trazado 4037" d="M172.6,442.257h12.156a.374.374,0,0,0,.373-.373v-1.22c0-2.15-1.46-2.752-2.955-3.172h-6.992c-1.5.42-2.955,1.022-2.955,3.172v1.22A.373.373,0,0,0,172.6,442.257Z" transform="translate(-172.228 -437.492)" fill="#22a6fe" fill-rule="evenodd"/>
      </g>
      <g id="Grupo_10943" data-name="Grupo 10943" transform="translate(22.906 38.858)">
        <path id="Trazado_4038" data-name="Trazado 4038" d="M274.049,438.335c1.5.42,3.026.845,3.026,2.995v.927h.993a.374.374,0,0,0,.373-.373v-1.22c0-2.15-1.46-2.752-2.955-3.172Z" transform="translate(-274.049 -437.492)" fill="#0182fc" fill-rule="evenodd"/>
      </g>
      <g id="Grupo_10944" data-name="Grupo 10944" transform="translate(17.35 37.44)">
        <path id="Trazado_4039" data-name="Trazado 4039" d="M207.578,421.94l2.87,1.685a.95.95,0,0,0,1.252,0l2.87-1.685c-.266-.076-.533-.144-.795-.215-.606-.168-.766-.949-.891-1.2h-3.62c-.125.255-.285,1.036-.891,1.2C208.113,421.8,207.844,421.865,207.578,421.94Z" transform="translate(-207.578 -420.522)" fill="#fed1a3" fill-rule="evenodd"/>
      </g>
      <g id="Grupo_10945" data-name="Grupo 10945" transform="translate(16.228 26.668)">
        <path id="Trazado_4040" data-name="Trazado 4040" d="M198.768,291.652c-2.311.038-4.62,1.78-4.62,5.213,6.509,1.345,4.051,1.246,9.239,0C203.387,293.432,201.076,291.69,198.768,291.652Z" transform="translate(-194.148 -291.652)" fill="#6d80aa" fill-rule="evenodd"/>
      </g>
      <g id="Grupo_10946" data-name="Grupo 10946" transform="translate(16.228 30.604)">
        <path id="Trazado_4041" data-name="Trazado 4041" d="M194.148,341.434a5.376,5.376,0,0,0,2.809,4.144,4.663,4.663,0,0,0,.653.3,2.98,2.98,0,0,0,2.313,0,4.663,4.663,0,0,0,.653-.3,5.374,5.374,0,0,0,2.811-4.144v-1.414c-1.87-.132-1.592-1.56-2.882-1.227a4.118,4.118,0,0,1-3.476,0c-1.29-.333-1.012,1.1-2.882,1.227v1.414Z" transform="translate(-194.148 -338.743)" fill="#ffe5c1" fill-rule="evenodd"/>
      </g>
      <g id="Grupo_10947" data-name="Grupo 10947" transform="translate(18.808 31.268)">
        <path id="Trazado_4042" data-name="Trazado 4042" d="M225.243,352.856a4.663,4.663,0,0,0,.653.3,2.98,2.98,0,0,0,2.313,0,4.663,4.663,0,0,0,.653-.3,5.374,5.374,0,0,0,2.811-4.144V347.3a2.217,2.217,0,0,1-1.483-.614V348.1a5.376,5.376,0,0,1-2.809,4.147,5.259,5.259,0,0,1-.653.3,2.976,2.976,0,0,1-1.714.175C225.089,352.768,225.165,352.813,225.243,352.856Z" transform="translate(-225.014 -346.684)" fill="#fed1a3" fill-rule="evenodd"/>
      </g>
      <g id="Grupo_10948" data-name="Grupo 10948" transform="translate(21.784 26.779)">
        <path id="Trazado_4043" data-name="Trazado 4043" d="M260.619,292.979a5.065,5.065,0,0,1,2.2,4.489,2.217,2.217,0,0,0,1.483.614C264.3,295.115,262.576,293.411,260.619,292.979Z" transform="translate(-260.619 -292.979)" fill="#49679b" fill-rule="evenodd"/>
      </g>
      <g id="Grupo_10949" data-name="Grupo 10949" transform="translate(18.497 37.44)">
        <path id="Trazado_4044" data-name="Trazado 4044" d="M223.98,422.218c.542-.205.842-.248.957-.08a1.732,1.732,0,0,0,.769.644l.3-.177,1.132-.666c-.266-.076-.533-.144-.795-.215-.606-.168-.766-.949-.891-1.2a4.665,4.665,0,0,1-.653.3,2.98,2.98,0,0,1-2.313,0,4.661,4.661,0,0,1-.653-.3,2.831,2.831,0,0,1-.533,1A3.294,3.294,0,0,0,223.98,422.218Z" transform="translate(-221.297 -420.521)" fill="#ffbc85" fill-rule="evenodd"/>
      </g>
      <g id="Grupo_10950" data-name="Grupo 10950" transform="translate(18.383 32.454)">
        <path id="Trazado_4045" data-name="Trazado 4045" d="M220.567,362.522a.627.627,0,0,1-.627-.627v-.4a.627.627,0,0,1,1.254,0v.4A.627.627,0,0,1,220.567,362.522Z" transform="translate(-219.94 -360.869)" fill="#6d80aa"/>
      </g>
      <g id="Grupo_10951" data-name="Grupo 10951" transform="translate(21.935 32.454)">
        <path id="Trazado_4046" data-name="Trazado 4046" d="M263.057,362.522a.627.627,0,0,1-.627-.627v-.4a.627.627,0,0,1,1.254,0v.4A.627.627,0,0,1,263.057,362.522Z" transform="translate(-262.43 -360.869)" fill="#6d80aa"/>
      </g>
      <g id="Grupo_10952" data-name="Grupo 10952" transform="translate(8.97 25.215)">
        <path id="Trazado_4047" data-name="Trazado 4047" d="M108.747,275.857a1.755,1.755,0,0,1-1.25-.518.627.627,0,0,1,.887-.886.51.51,0,0,0,.363.151h0a.5.5,0,0,0,.359-.15.627.627,0,0,1,.889.884,1.749,1.749,0,0,1-1.247.519Z" transform="translate(-107.314 -274.269)" fill="#fd4755"/>
      </g>
      <g id="Grupo_10953" data-name="Grupo 10953" transform="translate(6.423 21.77)">
        <path id="Trazado_4048" data-name="Trazado 4048" d="M78.819,234.573a.625.625,0,0,1-.436-.177.349.349,0,0,0-.476,0,.627.627,0,1,1-.872-.9,1.608,1.608,0,0,1,2.221,0,.627.627,0,0,1-.436,1.077Z" transform="translate(-76.844 -233.051)" fill="#6d80aa"/>
      </g>
      <g id="Grupo_10954" data-name="Grupo 10954" transform="translate(11.781 21.77)">
        <path id="Trazado_4049" data-name="Trazado 4049" d="M142.917,234.57a.625.625,0,0,1-.438-.178.346.346,0,0,0-.473,0,.627.627,0,1,1-.872-.9,1.6,1.6,0,0,1,2.22,0,.627.627,0,0,1-.438,1.076Z" transform="translate(-140.944 -233.047)" fill="#6d80aa"/>
      </g>
      <g id="Grupo_10957" data-name="Grupo 10957" transform="translate(35.372 36.728)">
        <path id="Trazado_4052" data-name="Trazado 4052" d="M423.19,415.918v-3.291a.627.627,0,1,1,1.254,0v3.291Z" transform="translate(-423.19 -412)" fill="#eee1dc"/>
      </g>
    </g>
  </g>
</svg>
