<svg xmlns="http://www.w3.org/2000/svg" xmlns:xlink="http://www.w3.org/1999/xlink" width="63" height="63" viewBox="0 0 63 63">
  <defs>
    <filter id="Elipse_774" x="0" y="0" width="63" height="63" filterUnits="userSpaceOnUse">
      <feOffset dy="3" input="SourceAlpha"/>
      <feGaussianBlur stdDeviation="3" result="blur"/>
      <feFlood flood-color="#dbdbdb" flood-opacity="0.161"/>
      <feComposite operator="in" in2="blur"/>
      <feComposite in="SourceGraphic"/>
    </filter>
    <clipPath id="clip-path">
      <rect id="Rectángulo_4135" data-name="Rectángulo 4135" width="29.961" height="13.539" fill="#fff"/>
    </clipPath>
  </defs>
  <g id="Plan_icon" transform="translate(-1558 -12036)">
    <g transform="matrix(1, 0, 0, 1, 1558, 12036)" filter="url(#Elipse_774)">
      <circle id="Elipse_774-2" data-name="Elipse 774" cx="22.5" cy="22.5" r="22.5" transform="translate(9 6)" fill="#3044b2"/>
    </g>
    <g id="logo_1_" data-name="logo (1)" transform="translate(1574.52 12057.73)">
      <g id="Grupo_13708" data-name="Grupo 13708" clip-path="url(#clip-path)">
        <path id="Trazado_75666" data-name="Trazado 75666" d="M1702.046,292.4a.452.452,0,0,1,.219.057.413.413,0,0,1,.167.164.449.449,0,0,1,.06.223.455.455,0,0,1-.059.222.409.409,0,0,1-.166.164.448.448,0,0,1-.444,0,.418.418,0,0,1-.166-.164.455.455,0,0,1-.059-.222.446.446,0,0,1,.06-.223.4.4,0,0,1,.167-.164.471.471,0,0,1,.219-.057m0,.056a.416.416,0,0,0-.191.049.353.353,0,0,0-.146.144.393.393,0,0,0,0,.389.375.375,0,0,0,.144.144.391.391,0,0,0,.194.052.387.387,0,0,0,.194-.052.375.375,0,0,0,.145-.144.392.392,0,0,0,.052-.194.4.4,0,0,0-.052-.2.353.353,0,0,0-.146-.144.421.421,0,0,0-.193-.049m-.238.131h.227a.329.329,0,0,1,.16.028.124.124,0,0,1,.064.111.121.121,0,0,1-.028.079.163.163,0,0,1-.084.051l.086.158a.162.162,0,0,0,.039.051.054.054,0,0,0,.027.011v.021h-.152l-.128-.231h-.028v.124c0,.036,0,.059.015.068a.087.087,0,0,0,.06.017v.021h-.266v-.021c.025,0,.043,0,.049-.013a.114.114,0,0,0,.016-.072v-.3a.127.127,0,0,0-.011-.066.065.065,0,0,0-.045-.017v-.023Zm.18.246.036,0a.1.1,0,0,0,.071-.031.121.121,0,0,0,.029-.083.109.109,0,0,0-.028-.08.113.113,0,0,0-.084-.028h-.024Z" transform="translate(-1678.85 -288.491)" fill="#fff"/>
      </g>
      <g id="Grupo_13709" data-name="Grupo 13709" clip-path="url(#clip-path)">
        <path id="Trazado_75667" data-name="Trazado 75667" d="M580.165,1.029l13.951,0a.264.264,0,0,1,.239-.17V.509h-4.583V0h-5.286V.509H579.9V.856c.25,0,.265.174.265.174" transform="translate(-572.147)" fill="#fff"/>
      </g>
      <g id="Grupo_13710" data-name="Grupo 13710" clip-path="url(#clip-path)">
        <path id="Trazado_75668" data-name="Trazado 75668" d="M994.1,93.244a.743.743,0,0,1,.806-.689.722.722,0,0,1,.8.689v1.773c.261,0,.521.009.778.016v-.567h.118l.031-2.316h-.116V91.9h-3.2v.251H993.2l.032,2.316h.118v.566q.373-.01.75-.016Z" transform="translate(-979.922 -90.671)" fill="#fff"/>
      </g>
      <g id="Grupo_13711" data-name="Grupo 13711" clip-path="url(#clip-path)">
        <path id="Trazado_75669" data-name="Trazado 75669" d="M605.752,94.467h.116l.059-2.316h-.116V91.9H601.2v3.587a43.455,43.455,0,0,1,4.551-.424v-.6Zm-3.206-.324h-.389v-.813h.389Zm0-.957h-.389v-.525h.389Zm.531.957h-.386v-.813h.386Zm0-.957h-.386v-.525h.386Zm1.18.957h-.39v-.814h.39Zm0-.957h-.39v-.525h.39Zm.532.957h-.39v-.814h.39Zm-.39-1.483h.39v.525h-.39Z" transform="translate(-593.162 -90.671)" fill="#fff"/>
      </g>
      <g id="Grupo_13712" data-name="Grupo 13712" clip-path="url(#clip-path)">
        <path id="Trazado_75670" data-name="Trazado 75670" d="M1292.8,91.9h-4.587v.251h-.115l.036,2.316h.115v.6a43.9,43.9,0,0,1,4.551.424Zm-3.1,2.223h-.386V93.31h.386Zm0-.956h-.386v-.527h.386Zm.533.956h-.389V93.31h.389Zm0-.956h-.389v-.527h.389Zm1.177.956h-.388V93.31h.388Zm0-.956h-.388v-.527h.388Zm.535.956h-.39V93.31h.39Zm-.389-1.483h.39v.527h-.39Z" transform="translate(-1270.879 -90.671)" fill="#fff"/>
      </g>
      <g id="Grupo_13713" data-name="Grupo 13713" clip-path="url(#clip-path)">
        <path id="Trazado_75671" data-name="Trazado 75671" d="M125.786,934.262a.06.06,0,0,1-.06.062h-3.463a.063.063,0,0,1-.063-.062.062.062,0,0,1,.063-.062h3.461a.063.063,0,0,1,.061.062" transform="translate(-120.566 -921.71)" fill="#fff"/>
      </g>
      <g id="Grupo_13714" data-name="Grupo 13714" clip-path="url(#clip-path)">
        <path id="Trazado_75672" data-name="Trazado 75672" d="M1854.284,934.262a.06.06,0,0,1-.06.062h-3.463a.062.062,0,0,1,0-.123h3.463a.062.062,0,0,1,.06.062" transform="translate(-1825.957 -921.71)" fill="#fff"/>
      </g>
      <g id="Grupo_13715" data-name="Grupo 13715" clip-path="url(#clip-path)">
        <path id="Trazado_75673" data-name="Trazado 75673" d="M537.872,875.8H537.8l-.028-.227a.444.444,0,0,0-.206-.036c-.238,0-.455.3-.455.749,0,.277.107.405.287.405a.592.592,0,0,0,.225-.031l.127-.238h.078l-.071.324a.836.836,0,0,1-.389.075c-.291,0-.465-.181-.465-.525,0-.582.322-.89.685-.89a.59.59,0,0,1,.337.074Z" transform="translate(-529.722 -863.696)" fill="#fff"/>
      </g>
      <g id="Grupo_13716" data-name="Grupo 13716" clip-path="url(#clip-path)">
        <path id="Trazado_75674" data-name="Trazado 75674" d="M624.623,902.547h-.341l.025-.241a.44.44,0,0,1-.352.265c-.17,0-.255-.116-.255-.326,0-.447.217-.745.511-.745a.331.331,0,0,1,.251.11l.078-.092h.092l-.156.9.16.054Zm-.4-.905c-.182,0-.333.217-.333.571,0,.142.045.2.143.2.139,0,.277-.156.318-.39l.053-.3a.25.25,0,0,0-.182-.078" transform="translate(-615.362 -889.448)" fill="#fff"/>
      </g>
      <g id="Grupo_13717" data-name="Grupo 13717" clip-path="url(#clip-path)">
        <path id="Trazado_75675" data-name="Trazado 75675" d="M706.576,901.834h-.09l-.015-.188a.383.383,0,0,0-.146-.021c-.15,0-.217.049-.217.123s.028.107.139.16l.079.039a.31.31,0,0,1,.213.279c0,.219-.179.344-.439.344a.817.817,0,0,1-.3-.047l.04-.285h.092l.021.187a.584.584,0,0,0,.16.017c.152,0,.243-.06.243-.159,0-.074-.028-.116-.134-.167l-.079-.039c-.156-.078-.213-.15-.213-.275,0-.183.148-.3.412-.3a.606.606,0,0,1,.277.057Z" transform="translate(-696.364 -889.448)" fill="#fff"/>
      </g>
      <g id="Grupo_13718" data-name="Grupo 13718" clip-path="url(#clip-path)">
        <path id="Trazado_75676" data-name="Trazado 75676" d="M782.023,902.547h-.341l.025-.241a.44.44,0,0,1-.352.265c-.17,0-.255-.116-.255-.326,0-.447.217-.745.511-.745a.331.331,0,0,1,.251.11l.078-.092h.092l-.156.9.161.054Zm-.394-.905c-.182,0-.333.217-.333.571,0,.142.045.2.143.2.139,0,.277-.156.318-.39l.053-.3a.249.249,0,0,0-.182-.078" transform="translate(-770.657 -889.448)" fill="#fff"/>
      </g>
      <g id="Grupo_13719" data-name="Grupo 13719" clip-path="url(#clip-path)">
        <path id="Trazado_75677" data-name="Trazado 75677" d="M864.075,901.834h-.09l-.015-.188a.383.383,0,0,0-.146-.021c-.15,0-.217.049-.217.123s.028.107.139.16l.079.039a.312.312,0,0,1,.213.279c0,.219-.178.344-.439.344a.817.817,0,0,1-.3-.047l.04-.285h.092l.021.187a.584.584,0,0,0,.16.017c.152,0,.243-.06.243-.159,0-.074-.028-.116-.132-.167l-.079-.039c-.158-.078-.213-.15-.213-.275,0-.183.148-.3.412-.3a.606.606,0,0,1,.277.057Z" transform="translate(-851.758 -889.448)" fill="#fff"/>
      </g>
      <g id="Grupo_13720" data-name="Grupo 13720" clip-path="url(#clip-path)">
        <path id="Trazado_75678" data-name="Trazado 75678" d="M969.317,867.785h-.083l-.024-.139a.174.174,0,0,0-.064-.009c-.088,0-.15.063-.174.191l-.024.147h.265l-.024.131h-.265l-.237,1.337H968.5l.234-1.337h-.166l.024-.131h.169l.025-.135a.386.386,0,0,1,.572-.29Z" transform="translate(-955.552 -855.902)" fill="#fff"/>
      </g>
      <g id="Grupo_13721" data-name="Grupo 13721" clip-path="url(#clip-path)">
        <path id="Trazado_75679" data-name="Trazado 75679" d="M1032.768,903.829h-.35l.032-.242a.455.455,0,0,1-.39.263c-.156,0-.218-.078-.218-.223a.923.923,0,0,1,.015-.146l.1-.552-.156-.053.013-.075h.352l-.12.659a.667.667,0,0,0-.011.107c0,.095.041.122.118.122.11,0,.3-.111.35-.393l.086-.5h.189l-.159.9.164.053Z" transform="translate(-1018.006 -890.73)" fill="#fff"/>
      </g>
      <g id="Grupo_13722" data-name="Grupo 13722" clip-path="url(#clip-path)">
        <path id="Trazado_75680" data-name="Trazado 75680" d="M1126.368,902.251h-.352l.122-.659c0-.035.008-.079.008-.106,0-.1-.04-.124-.118-.124-.109,0-.3.111-.348.394l-.088.493h-.186l.159-.9-.166-.053.015-.075h.348l-.032.245a.456.456,0,0,1,.393-.266c.156,0,.216.078.216.223a.91.91,0,0,1-.015.146l-.1.552.155.053Z" transform="translate(-1110.354 -889.152)" fill="#fff"/>
      </g>
      <g id="Grupo_13723" data-name="Grupo 13723" clip-path="url(#clip-path)">
        <path id="Trazado_75681" data-name="Trazado 75681" d="M1217.89,902.007c0,.028,0,.053,0,.078,0,.15.064.222.17.222a.509.509,0,0,0,.369-.159l.063.09a.606.606,0,0,1-.476.234c-.19,0-.312-.122-.312-.376,0-.429.235-.7.521-.7.206,0,.3.082.3.227,0,.206-.163.317-.636.38m.306-.472c-.143,0-.241.1-.286.354.358-.053.432-.118.432-.234,0-.078-.043-.12-.146-.12" transform="translate(-1201.42 -889.349)" fill="#fff"/>
      </g>
      <g id="Grupo_13724" data-name="Grupo 13724" clip-path="url(#clip-path)">
        <path id="Trazado_75682" data-name="Trazado 75682" d="M1299.967,901.825a.223.223,0,0,0-.122-.025c-.089,0-.227.143-.273.405l-.078.443h-.187l.159-.9-.167-.054.015-.075h.348l-.032.251c.1-.2.2-.27.287-.27a.214.214,0,0,1,.135.035Z" transform="translate(-1281.929 -889.546)" fill="#fff"/>
      </g>
      <g id="Grupo_13725" data-name="Grupo 13725" clip-path="url(#clip-path)">
        <path id="Trazado_75683" data-name="Trazado 75683" d="M1362.723,902.547h-.341l.025-.241a.44.44,0,0,1-.352.265c-.17,0-.255-.116-.255-.326,0-.447.217-.745.511-.745a.331.331,0,0,1,.251.11l.078-.092h.092l-.156.9.161.054Zm-.394-.905c-.182,0-.333.217-.333.571,0,.142.045.2.143.2.139,0,.277-.156.318-.39l.053-.3a.253.253,0,0,0-.182-.078" transform="translate(-1343.594 -889.448)" fill="#fff"/>
      </g>
      <g id="Grupo_13726" data-name="Grupo 13726" clip-path="url(#clip-path)">
        <path id="Trazado_75684" data-name="Trazado 75684" d="M1451.567,901.825a.223.223,0,0,0-.122-.025c-.089,0-.227.143-.273.405l-.078.443h-.187l.159-.9-.167-.054.015-.075h.347l-.032.251c.1-.2.2-.27.287-.27a.213.213,0,0,1,.135.035Z" transform="translate(-1431.502 -889.546)" fill="#fff"/>
      </g>
      <g id="Grupo_13727" data-name="Grupo 13727" clip-path="url(#clip-path)">
        <path id="Trazado_75685" data-name="Trazado 75685" d="M1515.87,867.916h-.364l.159-.9-.166-.054.015-.075h.361l-.159.9.166.053Zm-.049-1.257a.1.1,0,0,1-.11-.107.157.157,0,0,1,.152-.152.1.1,0,0,1,.1.106.151.151,0,0,1-.146.154" transform="translate(-1495.239 -854.817)" fill="#fff"/>
      </g>
      <g id="Grupo_13728" data-name="Grupo 13728" clip-path="url(#clip-path)">
        <path id="Trazado_75686" data-name="Trazado 75686" d="M1565.023,902.547h-.341l.025-.241a.44.44,0,0,1-.352.265c-.17,0-.255-.116-.255-.326,0-.447.217-.745.511-.745a.326.326,0,0,1,.25.11l.078-.092h.092l-.158.9.16.054Zm-.395-.905c-.182,0-.333.217-.333.571,0,.142.045.2.144.2.139,0,.277-.156.318-.39l.054-.3a.255.255,0,0,0-.183-.078" transform="translate(-1543.189 -889.448)" fill="#fff"/>
      </g>
      <g id="Grupo_13729" data-name="Grupo 13729" clip-path="url(#clip-path)">
        <path id="Trazado_75687" data-name="Trazado 75687" d="M1647.076,901.834h-.09l-.015-.188a.386.386,0,0,0-.147-.021c-.15,0-.217.049-.217.123s.028.107.139.16l.079.039a.31.31,0,0,1,.213.279c0,.219-.179.344-.438.344a.8.8,0,0,1-.3-.047l.04-.285h.092l.021.187a.585.585,0,0,0,.161.017c.152,0,.242-.06.242-.159,0-.074-.028-.116-.132-.167l-.079-.039c-.156-.078-.213-.15-.213-.275,0-.183.148-.3.412-.3a.606.606,0,0,1,.277.057Z" transform="translate(-1624.29 -889.448)" fill="#fff"/>
      </g>
      <g id="Grupo_13730" data-name="Grupo 13730" clip-path="url(#clip-path)">
        <path id="Trazado_75688" data-name="Trazado 75688" d="M266.406,502.969H266.4c-.158.009-.314.013-.493.013-.29,0-.537-.005-.664-.013h-.005l-.005,0a.079.079,0,0,0-.04.078.09.09,0,0,0,.039.084l.214.025c.274.031.281.043.281.426v.187a.493.493,0,0,1-.043.251c-.052.08-.237.128-.491.128a1.274,1.274,0,0,1-1.374-1.447,1.221,1.221,0,0,1,1.275-1.317.82.82,0,0,1,.931.643v0l.005.007a.109.109,0,0,0,.076.025.1.1,0,0,0,.092-.048l0-.005v-.007a5,5,0,0,1-.07-.672v-.029l-.028.005h-.023a1.443,1.443,0,0,1-.231-.037l-.027-.005a2.761,2.761,0,0,0-.6-.071,1.958,1.958,0,0,0-1.5.553,1.466,1.466,0,0,0-.425,1.059,1.339,1.339,0,0,0,.436,1.012,1.967,1.967,0,0,0,1.441.524,3.707,3.707,0,0,0,.84-.122,1.073,1.073,0,0,1,.222-.04h.008l.005-.005a.063.063,0,0,0,.025-.045.066.066,0,0,0-.019-.049l-.007-.005c-.067-.025-.095-.118-.095-.306v-.261c0-.246.007-.346.176-.366l.082-.011h0l.007-.005a.112.112,0,0,0,.032-.088.089.089,0,0,0-.039-.07Z" transform="translate(-259.78 -494.499)" fill="#fff"/>
      </g>
      <g id="Grupo_13731" data-name="Grupo 13731" clip-path="url(#clip-path)">
        <path id="Trazado_75689" data-name="Trazado 75689" d="M509.875,573.718l-.082-.017c-.154-.028-.19-.076-.247-.231l-.418-1.114c-.068-.18-.123-.344-.159-.451l0-.015c-.021-.062-.032-.094-.037-.107a.076.076,0,0,0-.107-.039l-.011,0,0,.009a.388.388,0,0,1-.182.164l-.015.005,0,.015a1.485,1.485,0,0,1-.119.385l-.448,1.072c-.094.223-.143.263-.27.293l-.11.025-.007,0a.093.093,0,0,0-.033.088.08.08,0,0,0,.047.071l.007,0h.007c.017,0,.036,0,.057,0h.007c.071-.005.162-.009.261-.009.131,0,.25,0,.368.013h0a.079.079,0,0,0,.059-.066.1.1,0,0,0-.036-.1l-.134-.027c-.031-.007-.052-.013-.057-.023s.007-.078.024-.13l.107-.3c.032-.094.035-.094.135-.094h.443c.1,0,.1,0,.135.094l.111.3c.021.055.044.114.033.132s-.047.02-.075.025l-.095.015h-.005a.081.081,0,0,0-.043.084.088.088,0,0,0,.056.08h.008c.118-.009.254-.013.418-.013.147,0,.254,0,.386.013h0a.081.081,0,0,0,.06-.071.084.084,0,0,0-.036-.091m-.949-.782c-.007.011-.059.011-.084.011h-.322a.189.189,0,0,1-.065-.007.258.258,0,0,1,.028-.095l.167-.414c.028-.059.044-.1.055-.124a1.242,1.242,0,0,1,.053.132l.144.4c.009.023.033.088.024.1" transform="translate(-500.832 -564.093)" fill="#fff"/>
      </g>
      <g id="Grupo_13732" data-name="Grupo 13732" clip-path="url(#clip-path)">
        <path id="Trazado_75690" data-name="Trazado 75690" d="M692.2,576.973h-.009a.389.389,0,0,1-.233-.092,2.836,2.836,0,0,1-.587-.741s-.013-.023-.008-.035a.546.546,0,0,0,.427-.52c0-.519-.5-.584-.929-.584-.259,0-.524.008-.782.028a.083.083,0,0,0-.048.092c0,.041.024.071.052.075l.131.019c.079.011.09.055.09.372v.988c0,.306-.011.309-.2.349l-.075.016a.084.084,0,0,0-.044.084.087.087,0,0,0,.057.08h.008c.166-.009.312-.013.456-.013s.293,0,.493.013h.009a.079.079,0,0,0,.047-.07.1.1,0,0,0-.032-.092l-.118-.019c-.179-.025-.2-.028-.2-.348v-.33c0-.048,0-.049.1-.049a.2.2,0,0,1,.166.063c.02.032.043.067.067.1l.008.015c.086.13.179.275.267.389a.761.761,0,0,0,.673.358.688.688,0,0,0,.2-.025l.005,0a.066.066,0,0,0,.024-.049.073.073,0,0,0-.021-.063Zm-.848-1.374c0,.293-.128.417-.436.417-.207,0-.207,0-.207-.091v-.634c0-.095.007-.106.179-.106a.415.415,0,0,1,.464.413" transform="translate(-680.756 -567.313)" fill="#fff"/>
      </g>
      <g id="Grupo_13733" data-name="Grupo 13733" clip-path="url(#clip-path)">
        <path id="Trazado_75691" data-name="Trazado 75691" d="M858.508,572.618a.092.092,0,0,0-.083.047.7.7,0,0,1-.648.455.859.859,0,0,1-.813-.953.776.776,0,0,1,.773-.88.57.57,0,0,1,.623.459l0,.005v0a.1.1,0,0,0,.076.032.1.1,0,0,0,.087-.047l0-.007v-.008a4.263,4.263,0,0,1-.041-.509v-.025h-.024a.563.563,0,0,1-.065-.012h-.008a2.619,2.619,0,0,0-.566-.075,1.52,1.52,0,0,0-.925.275,1.043,1.043,0,0,0-.4.86,1.019,1.019,0,0,0,.453.85,1.442,1.442,0,0,0,.836.219,1.886,1.886,0,0,0,.516-.072c.044-.011.082-.02.118-.027h.009l.007-.009a1.391,1.391,0,0,0,.159-.516v-.007l0-.007a.1.1,0,0,0-.086-.048" transform="translate(-845.049 -563.465)" fill="#fff"/>
      </g>
      <g id="Grupo_13734" data-name="Grupo 13734" clip-path="url(#clip-path)">
        <path id="Trazado_75692" data-name="Trazado 75692" d="M1035.9,575.082l.091-.015.008,0a.092.092,0,0,0,.032-.091.079.079,0,0,0-.047-.07l-.005,0h0c-.2.009-.341.013-.475.013s-.271,0-.475-.013h0l-.005,0a.079.079,0,0,0-.047.07.094.094,0,0,0,.031.091l.1.019c.183.029.2.032.2.346v1.046c0,.316-.015.32-.2.348l-.09.015-.009,0a.092.092,0,0,0-.031.092.081.081,0,0,0,.047.07h.009c.19-.009.333-.013.475-.013s.294,0,.475.013h.009a.081.081,0,0,0,.047-.07.1.1,0,0,0-.032-.092l-.1-.019c-.184-.028-.2-.032-.2-.348v-1.046c0-.314.013-.315.2-.346" transform="translate(-1021.127 -567.214)" fill="#fff"/>
      </g>
      <g id="Grupo_13735" data-name="Grupo 13735" clip-path="url(#clip-path)">
        <path id="Trazado_75693" data-name="Trazado 75693" d="M1125.031,573.718l-.083-.017c-.154-.028-.193-.076-.247-.231l-.421-1.114c-.068-.18-.122-.344-.158-.451l0-.015c-.02-.062-.032-.094-.037-.107a.075.075,0,0,0-.106-.039l-.011,0-.005.009a.378.378,0,0,1-.181.164l-.015.005v.015a1.419,1.419,0,0,1-.119.385l-.447,1.072c-.094.223-.142.263-.271.293l-.108.024-.008,0a.1.1,0,0,0-.035.088.086.086,0,0,0,.048.071l.007,0h.005c.019,0,.039,0,.059,0h.005c.071-.005.162-.009.262-.009.13,0,.25,0,.368.013h.005a.075.075,0,0,0,.056-.066.093.093,0,0,0-.035-.1l-.134-.027c-.031-.007-.052-.013-.057-.023s.007-.078.025-.13l.106-.3c.033-.094.036-.094.136-.094h.444c.1,0,.1,0,.132.094l.112.3c.021.055.044.114.035.132s-.029.017-.075.025l-.094.015h-.005a.079.079,0,0,0-.043.084.085.085,0,0,0,.055.08h.009c.118-.009.253-.013.417-.013.147,0,.254,0,.388.013h0a.081.081,0,0,0,.06-.071.1.1,0,0,0-.04-.091m-.949-.782c-.007.011-.06.011-.084.011h-.322a.188.188,0,0,1-.065-.007c0-.008.005-.039.028-.095l.168-.414c.028-.063.044-.1.055-.124a1.277,1.277,0,0,1,.053.132l.143.4q.034.088.024.1" transform="translate(-1107.764 -564.093)" fill="#fff"/>
      </g>
      <g id="Grupo_13736" data-name="Grupo 13736" clip-path="url(#clip-path)">
        <path id="Trazado_75694" data-name="Trazado 75694" d="M1385.56,508.086a.09.09,0,0,0-.055.016l-.007.011a.969.969,0,0,1-.3.448c-.07.04-.167.059-.556.059-.344,0-.438-.048-.489-.1-.078-.082-.091-.2-.091-.485v-1.5c0-.487.008-.541.261-.562l.114-.009.009,0h0a.087.087,0,0,0,.028-.079.1.1,0,0,0-.039-.083h-.012c-.222.009-.386.013-.572.013s-.333,0-.606-.013h-.012c-.028.013-.036.051-.039.083a.085.085,0,0,0,.027.079h0l.124.012c.271.021.28.068.28.562v1.551c0,.487-.008.532-.258.558l-.15.015-.005.007a.119.119,0,0,0-.023.094.083.083,0,0,0,.039.064l.005,0h.007c.266-.009.412-.013.606-.013h.429c.512,0,.936,0,1.158.013h.016l.007-.013a3.656,3.656,0,0,0,.2-.664c0-.045-.062-.064-.1-.064" transform="translate(-1364.705 -499.038)" fill="#fff"/>
      </g>
      <g id="Grupo_13737" data-name="Grupo 13737" clip-path="url(#clip-path)">
        <path id="Trazado_75695" data-name="Trazado 75695" d="M1656.219,501.512h.017l.463-.444c.06-.065.1-.118.1-.158a.179.179,0,0,0-.1-.144.227.227,0,0,0-.139-.063h-.011c-.039,0-.079.037-.122.115l-.322.6,0,0,0,.009a.128.128,0,0,0,.116.086" transform="translate(-1633.959 -494.006)" fill="#fff"/>
      </g>
      <g id="Grupo_13738" data-name="Grupo 13738" clip-path="url(#clip-path)">
        <path id="Trazado_75696" data-name="Trazado 75696" d="M1583.475,571.2a1.111,1.111,0,0,0-1.175,1.12,1.083,1.083,0,0,0,1.175,1.083,1.1,1.1,0,0,0,1.158-1.112,1.064,1.064,0,0,0-1.158-1.091m.025,2.017c-.508,0-.734-.488-.734-.972,0-.634.35-.861.678-.861.5,0,.725.491.725.977,0,.794-.512.856-.668.856" transform="translate(-1561.146 -563.563)" fill="#fff"/>
      </g>
      <g id="Grupo_13739" data-name="Grupo 13739" clip-path="url(#clip-path)">
        <path id="Trazado_75697" data-name="Trazado 75697" d="M1776.717,575.08a1.674,1.674,0,0,0-.568-.08c-.242,0-.479.008-.747.028h-.005a.089.089,0,0,0-.053.087.078.078,0,0,0,.053.079l.139.023c.08.015.09.052.09.368v.988c0,.306-.011.309-.2.349l-.072.015-.007,0a.1.1,0,0,0-.032.092.087.087,0,0,0,.047.07h.012c.165-.009.309-.013.455-.013s.293,0,.492.013h.012a.082.082,0,0,0,.045-.07.1.1,0,0,0-.031-.092l-.119-.019c-.177-.025-.2-.028-.2-.348V575.32c0-.126,0-.134.165-.134a.426.426,0,0,1,.483.451.465.465,0,0,1-.413.507h-.005l-.007.005a.09.09,0,0,0,.005.12l.005.007h.009a.443.443,0,0,0,.047,0,1.281,1.281,0,0,0,.389-.072.565.565,0,0,0,.4-.556.591.591,0,0,0-.4-.571" transform="translate(-1751.578 -567.313)" fill="#fff"/>
      </g>
      <g id="Grupo_13740" data-name="Grupo 13740" clip-path="url(#clip-path)">
        <path id="Trazado_75698" data-name="Trazado 75698" d="M1924.8,576a.1.1,0,0,0-.074.029l0,.007c-.128.353-.287.37-.584.37-.267,0-.338-.021-.37-.056s-.045-.1-.045-.32V575.7c0-.082,0-.082.063-.082h.219c.242,0,.25.033.283.158l.024.09,0,.007a.083.083,0,0,0,.072.032.106.106,0,0,0,.087-.043l0-.007,0-.008c-.008-.135-.008-.218-.008-.334s0-.19.008-.325l0-.009,0-.005a.1.1,0,0,0-.087-.044.088.088,0,0,0-.072.032l-.028.1c-.033.124-.041.158-.283.158h-.219c-.063,0-.063,0-.063-.068v-.517c0-.123,0-.123.143-.123h.2c.108,0,.309,0,.376.1a.633.633,0,0,1,.081.218l0,.007v0a.1.1,0,0,0,.076.031.1.1,0,0,0,.088-.046V575c-.025-.207-.047-.421-.051-.475V574.5l-.028.007a3.989,3.989,0,0,1-.428.013h-.663c-.154,0-.3-.005-.432-.013h-.008l0,0a.1.1,0,0,0-.046.084.076.076,0,0,0,.035.076l.071.017c.163.033.175.036.175.346v1.045c0,.325-.023.328-.2.348l-.128.015-.008,0h0a.1.1,0,0,0-.032.092.081.081,0,0,0,.047.07h.011c.215-.008.362-.013.516-.013h.41c.243,0,.489,0,.792.013h.016l.007-.013a1.807,1.807,0,0,0,.143-.527v-.011a.1.1,0,0,0-.094-.054" transform="translate(-1897.246 -566.819)" fill="#fff"/>
      </g>
      <g id="Grupo_13741" data-name="Grupo 13741" clip-path="url(#clip-path)">
        <path id="Trazado_75699" data-name="Trazado 75699" d="M2088.644,569.125a.118.118,0,0,0-.1-.054.086.086,0,0,0-.063.025l0,.005,0,0a.48.48,0,0,1-.219.325,1.17,1.17,0,0,1-.524.072c-.249,0-.412-.009-.469-.013s-.079-.015-.079-.015h0a2.54,2.54,0,0,1,.25-.348c.025-.032.045-.057.053-.069l.536-.731a5.965,5.965,0,0,1,.515-.614l.005-.005a.073.073,0,0,0,0-.06.086.086,0,0,0-.048-.047h-.012a3.072,3.072,0,0,1-.337.013h-.947c-.186,0-.263-.007-.263-.068v-.007l0-.007a.074.074,0,0,0-.063-.031.065.065,0,0,0-.064.045,5.041,5.041,0,0,1-.134.574l0,.009,0,.009a.1.1,0,0,0,.095.056.092.092,0,0,0,.068-.027l.005-.008c.11-.313.226-.361.572-.361h.425c.085,0,.095.011.1.011s0,.011-.024.047-.072.1-.129.175l-.017.025c-.059.079-.125.17-.147.2l-.7.948a3.112,3.112,0,0,1-.321.381.083.083,0,0,0-.016.059.093.093,0,0,0,.037.053l.008,0h.009a2.881,2.881,0,0,1,.35-.013h.816c.323,0,.552,0,.68.013h.015l.008-.012a1.756,1.756,0,0,0,.143-.551v-.009Z" transform="translate(-2058.686 -559.913)" fill="#fff"/>
      </g>
      <g id="Grupo_13742" data-name="Grupo 13742" clip-path="url(#clip-path)">
        <path id="Trazado_75700" data-name="Trazado 75700" d="M1061.919,501.512h.02l.461-.444c.06-.065.1-.118.1-.158a.18.18,0,0,0-.1-.144.233.233,0,0,0-.139-.063h-.013c-.039,0-.079.037-.12.115l-.323.6,0,0,0,.011a.128.128,0,0,0,.115.084" transform="translate(-1047.604 -494.006)" fill="#fff"/>
      </g>
      <g id="Grupo_13743" data-name="Grupo 13743" clip-path="url(#clip-path)">
        <path id="Trazado_75701" data-name="Trazado 75701" d="M1.539,505l-.007,0H1.524c-.186.009-.337.013-.5.013s-.321,0-.594-.013H.418l-.007,0a.1.1,0,0,0-.041.084.083.083,0,0,0,.029.08l.007,0,.118.009c.229.02.278.04.278.536v1.677a3.767,3.767,0,0,1-.112,1.1.158.158,0,0,1-.15.1.694.694,0,0,1-.178-.029.588.588,0,0,0-.172-.028c-.118,0-.19.152-.19.235,0,.057.039.124.222.124a.992.992,0,0,0,.9-.658,2.542,2.542,0,0,0,.1-.872v-1.646c0-.476.013-.505.243-.536l.074-.011.007,0a.083.083,0,0,0,.029-.08A.1.1,0,0,0,1.539,505" transform="translate(0 -498.248)" fill="#fff"/>
      </g>
      <g id="Grupo_13744" data-name="Grupo 13744" clip-path="url(#clip-path)">
        <path id="Trazado_75702" data-name="Trazado 75702" d="M150.279,691.7a.28.28,0,0,0-.279.293.272.272,0,0,0,.279.275.266.266,0,0,0,.279-.275.281.281,0,0,0-.279-.293" transform="translate(-147.995 -682.452)" fill="#fff"/>
      </g>
    </g>
  </g>
</svg>
