<svg xmlns="http://www.w3.org/2000/svg" xmlns:xlink="http://www.w3.org/1999/xlink" width="44" height="44" viewBox="0 0 44 44">
  <defs>
    <linearGradient id="linear-gradient" x1="0.5" x2="0.5" y2="1" gradientUnits="objectBoundingBox">
      <stop offset="0" stop-color="#4f78ae"/>
      <stop offset="1" stop-color="#262158"/>
    </linearGradient>
  </defs>
  <g id="shipping_icon" transform="translate(-6084 -3927)">
    <g id="Grupo_13034" data-name="Grupo 13034" transform="translate(6084.269 3926.918)">
      <g id="Grupo_10448" data-name="Grupo 10448" transform="translate(0 0)" opacity="0.103">
        <rect id="Rect치ngulo_504" data-name="Rect치ngulo 504" width="44" height="44" rx="22" transform="translate(-0.268 0.082)" fill="#3e358b"/>
      </g>
      <g id="Grupo_10447" data-name="Grupo 10447" transform="translate(4.23 5.076)">
        <rect id="Rect치ngulo_504-2" data-name="Rect치ngulo 504" width="35" height="35" rx="17.5" transform="translate(-0.499 0.006)" fill="url(#linear-gradient)"/>
      </g>
    </g>
    <g id="delivery-truck" transform="translate(6088.816 3866.744)">
      <path id="Trazado_3782" data-name="Trazado 3782" d="M337.805,164.8h-7.1v12.862h11.627v-5.789l-1.356-4.686a3.3,3.3,0,0,0-3.174-2.386" transform="translate(-308.512 -89.746)" fill="#ff7058"/>
      <path id="Trazado_3783" data-name="Trazado 3783" d="M363.087,194.262l-1.208-4.177a1.7,1.7,0,0,0-1.624-1.221h-5.481v5.4Z" transform="translate(-330.961 -112.195)" fill="#84dbff"/>
      <path id="Trazado_3784" data-name="Trazado 3784" d="M363.049,194.23h-8.318v-5.4Z" transform="translate(-330.922 -112.165)" fill="#cdd6e0"/>
      <path id="Trazado_3785" data-name="Trazado 3785" d="M363.087,194.262l-1.208-4.177a1.7,1.7,0,0,0-1.624-1.221h-5.481Z" transform="translate(-330.961 -112.195)" fill="#f2f2f2"/>
      <path id="Trazado_3786" data-name="Trazado 3786" d="M2.148,68.6h17.9A2.422,2.422,0,0,1,22.2,71.22V92.19H0V71.22A2.421,2.421,0,0,1,2.148,68.6" transform="translate(0 -4.275)" fill="#ffd15c"/>
      <path id="Trazado_3787" data-name="Trazado 3787" d="M120.8,68.651v5.675l-.831-.83-.871.871-.87-.871-.87.871-.871-.871-.881.871-.869-.871-.84.841V68.651Z" transform="translate(-106.254 -4.325)" fill="#f2f2f2"/>
      <path id="Trazado_3788" data-name="Trazado 3788" d="M34.408,321.378v2.427H.043v-2.427H3.63a4.921,4.921,0,0,1,8.591,0H23.762a4.914,4.914,0,0,1,8.583,0Z" transform="translate(-0.04 -233.464)" fill="#334a5e"/>
      <path id="Trazado_3789" data-name="Trazado 3789" d="M373.088,344.667a3.429,3.429,0,1,1-3.43-3.43,3.43,3.43,0,0,1,3.43,3.43" transform="translate(-341.648 -254.341)" fill="#40596b"/>
      <path id="Trazado_3790" data-name="Trazado 3790" d="M399.545,373.2a1.378,1.378,0,1,1-1.377-1.377,1.378,1.378,0,0,1,1.377,1.377" transform="translate(-370.157 -282.869)" fill="#acb3ba"/>
      <path id="Trazado_3791" data-name="Trazado 3791" d="M73.2,344.667a3.43,3.43,0,1,1-3.43-3.43,3.431,3.431,0,0,1,3.43,3.43" transform="translate(-61.884 -254.341)" fill="#40596b"/>
      <path id="Trazado_3792" data-name="Trazado 3792" d="M99.663,373.2a1.378,1.378,0,1,1-1.377-1.377,1.377,1.377,0,0,1,1.377,1.377" transform="translate(-90.403 -282.869)" fill="#acb3ba"/>
    </g>
  </g>
</svg>
