<svg xmlns="http://www.w3.org/2000/svg" width="15.285" height="12.711" viewBox="0 0 15.285 12.711">
  <g id="users_icon" transform="translate(-1 -3.976)">
    <path id="Trazado_3756" data-name="Trazado 3756" d="M11.889,26.4V25.1a2.6,2.6,0,0,0-2.6-2.6H4.1a2.6,2.6,0,0,0-2.6,2.6v1.3" transform="translate(0 -10.208)" fill="none" stroke="#464f80" stroke-linecap="round" stroke-linejoin="round" stroke-width="1"/>
    <path id="Trazado_3757" data-name="Trazado 3757" d="M12.694,7.1a2.6,2.6,0,1,1-2.6-2.6,2.6,2.6,0,0,1,2.6,2.6Z" transform="translate(-3.403)" fill="none" stroke="#464f80" stroke-linecap="round" stroke-linejoin="round" stroke-width="1"/>
    <path id="Trazado_3758" data-name="Trazado 3758" d="M31.948,26.506v-1.3A2.6,2.6,0,0,0,30,22.7" transform="translate(-16.163 -10.319)" fill="none" stroke="#464f80" stroke-linecap="round" stroke-linejoin="round" stroke-width="1"/>
    <path id="Trazado_3759" data-name="Trazado 3759" d="M24,4.7a2.6,2.6,0,0,1,0,5.032" transform="translate(-12.76 -0.111)" fill="none" stroke="#464f80" stroke-linecap="round" stroke-linejoin="round" stroke-width="1"/>
  </g>
</svg>
